<mxfile host="app.diagrams.net" agent="Mozilla/5.0 (Windows NT 10.0; Win64; x64) AppleWebKit/537.36 (KHTML, like Gecko) Chrome/130.0.0.0 Safari/537.36 Edg/130.0.0.0" version="24.8.4" pages="8">
  <diagram name="activityDiagram" id="e7e014a7-5840-1c2e-5031-d8a46d1fe8dd">
    <mxGraphModel dx="1002" dy="535" grid="1" gridSize="10" guides="0" tooltips="1" connect="1" arrows="1" fold="1" page="1" pageScale="1" pageWidth="1169" pageHeight="826" background="none" math="0" shadow="0">
      <root>
        <mxCell id="0" />
        <mxCell id="1" parent="0" />
        <mxCell id="2" value="Khách hàng" style="swimlane;whiteSpace=wrap" parent="1" vertex="1">
          <mxGeometry x="159" y="128" width="285.5" height="1412" as="geometry" />
        </mxCell>
        <mxCell id="5" value="" style="ellipse;shape=startState;fillColor=#000000;strokeColor=#ff0000;" parent="2" vertex="1">
          <mxGeometry x="100" y="40" width="30" height="30" as="geometry" />
        </mxCell>
        <mxCell id="6" value="" style="edgeStyle=elbowEdgeStyle;elbow=horizontal;verticalAlign=bottom;endArrow=open;endSize=8;strokeColor=#FF0000;endFill=1;rounded=0;exitX=0.489;exitY=0.861;exitDx=0;exitDy=0;exitPerimeter=0;entryX=0.453;entryY=0.001;entryDx=0;entryDy=0;entryPerimeter=0;" parent="2" source="5" target="mBkQFeCS0W0rON8SmBz--56" edge="1">
          <mxGeometry x="100" y="40" as="geometry">
            <mxPoint x="115.5" y="110" as="targetPoint" />
            <Array as="points">
              <mxPoint x="115" y="112" />
            </Array>
          </mxGeometry>
        </mxCell>
        <mxCell id="mBkQFeCS0W0rON8SmBz--56" value="Xem danh sách sản phẩm" style="rounded=1;whiteSpace=wrap;html=1;arcSize=40;fontColor=#000000;fillColor=#ffffc0;strokeColor=#ff0000;" parent="2" vertex="1">
          <mxGeometry x="61" y="112" width="120" height="40" as="geometry" />
        </mxCell>
        <mxCell id="mBkQFeCS0W0rON8SmBz--73" value="" style="edgeStyle=elbowEdgeStyle;elbow=horizontal;verticalAlign=bottom;endArrow=open;endSize=8;strokeColor=#FF0000;endFill=1;rounded=0;entryX=0;entryY=0.5;entryDx=0;entryDy=0;" parent="2" target="mBkQFeCS0W0rON8SmBz--71" edge="1">
          <mxGeometry x="-503.5" y="-216" as="geometry">
            <mxPoint x="361" y="192" as="targetPoint" />
            <mxPoint x="114.70999999999998" y="152" as="sourcePoint" />
            <Array as="points">
              <mxPoint x="114.70999999999998" y="152" />
            </Array>
          </mxGeometry>
        </mxCell>
        <mxCell id="mBkQFeCS0W0rON8SmBz--95" value="Nhập vào thanh tìm kiếm" style="rounded=1;whiteSpace=wrap;html=1;arcSize=40;fontColor=#000000;fillColor=#ffffc0;strokeColor=#ff0000;" parent="2" vertex="1">
          <mxGeometry x="51" y="322" width="120" height="40" as="geometry" />
        </mxCell>
        <mxCell id="mBkQFeCS0W0rON8SmBz--92" value="Từ khóa" style="rhombus;whiteSpace=wrap;html=1;fontColor=#000000;fillColor=#ffffc0;strokeColor=#ff0000;" parent="2" vertex="1">
          <mxGeometry x="71" y="402" width="80" height="40" as="geometry" />
        </mxCell>
        <mxCell id="mBkQFeCS0W0rON8SmBz--97" value="" style="edgeStyle=elbowEdgeStyle;elbow=horizontal;verticalAlign=bottom;endArrow=open;endSize=8;strokeColor=#FF0000;endFill=1;rounded=0" parent="2" edge="1">
          <mxGeometry x="-59" y="-88" as="geometry">
            <mxPoint x="111.15999999999998" y="402" as="targetPoint" />
            <mxPoint x="110.65999999999998" y="362" as="sourcePoint" />
          </mxGeometry>
        </mxCell>
        <mxCell id="mBkQFeCS0W0rON8SmBz--94" value="yes" style="edgeStyle=orthogonalEdgeStyle;html=1;align=left;verticalAlign=top;endArrow=open;endSize=8;strokeColor=#ff0000;rounded=0;exitX=0.5;exitY=1;exitDx=0;exitDy=0;" parent="2" source="mBkQFeCS0W0rON8SmBz--92" edge="1">
          <mxGeometry x="-1" relative="1" as="geometry">
            <mxPoint x="361" y="492" as="targetPoint" />
            <mxPoint x="90.57999999999998" y="492" as="sourcePoint" />
            <Array as="points">
              <mxPoint x="111" y="492" />
            </Array>
          </mxGeometry>
        </mxCell>
        <mxCell id="mBkQFeCS0W0rON8SmBz--127" value="Bấm thêm giỏ hàng" style="rounded=1;whiteSpace=wrap;html=1;arcSize=40;fontColor=#000000;fillColor=#ffffc0;strokeColor=#ff0000;" parent="2" vertex="1">
          <mxGeometry x="51" y="712" width="120" height="40" as="geometry" />
        </mxCell>
        <mxCell id="wwX1FMIC8D3P-xPPwjGh-8" value="Thanh toán" style="rhombus;whiteSpace=wrap;html=1;fontColor=#000000;fillColor=#ffffc0;strokeColor=#ff0000;" parent="2" vertex="1">
          <mxGeometry x="71" y="882" width="80" height="40" as="geometry" />
        </mxCell>
        <mxCell id="wwX1FMIC8D3P-xPPwjGh-25" value="Nhập thông tin thanh toán" style="rounded=1;whiteSpace=wrap;html=1;arcSize=40;fontColor=#000000;fillColor=#ffffc0;strokeColor=#ff0000;" parent="2" vertex="1">
          <mxGeometry x="51" y="1032" width="120" height="40" as="geometry" />
        </mxCell>
        <mxCell id="BrNjS9KkAqVkk8RL5Kpp-6" value="Chọn sản phẩm" style="rhombus;whiteSpace=wrap;html=1;fontColor=#000000;fillColor=#ffffc0;strokeColor=#ff0000;" parent="2" vertex="1">
          <mxGeometry x="71" y="544" width="80" height="40" as="geometry" />
        </mxCell>
        <mxCell id="mBkQFeCS0W0rON8SmBz--54" value="Hệ thống" style="swimlane;whiteSpace=wrap" parent="1" vertex="1">
          <mxGeometry x="445" y="130" width="395" height="1410" as="geometry" />
        </mxCell>
        <mxCell id="mBkQFeCS0W0rON8SmBz--71" value="Hiển thị trang danh sách sản phẩm" style="rounded=1;whiteSpace=wrap;html=1;arcSize=40;fontColor=#000000;fillColor=#ffffc0;strokeColor=#ff0000;" parent="mBkQFeCS0W0rON8SmBz--54" vertex="1">
          <mxGeometry x="85" y="172" width="120" height="40" as="geometry" />
        </mxCell>
        <mxCell id="mBkQFeCS0W0rON8SmBz--102" value="Hiển thị danh sách sản phẩm liên quan" style="rounded=1;whiteSpace=wrap;html=1;arcSize=40;fontColor=#000000;fillColor=#ffffc0;strokeColor=#ff0000;" parent="mBkQFeCS0W0rON8SmBz--54" vertex="1">
          <mxGeometry x="80" y="402" width="120" height="40" as="geometry" />
        </mxCell>
        <mxCell id="mBkQFeCS0W0rON8SmBz--103" value="Hiển thị danh sách tìm thấy" style="rounded=1;whiteSpace=wrap;html=1;arcSize=40;fontColor=#000000;fillColor=#ffffc0;strokeColor=#ff0000;" parent="mBkQFeCS0W0rON8SmBz--54" vertex="1">
          <mxGeometry x="80" y="472" width="120" height="40" as="geometry" />
        </mxCell>
        <mxCell id="mBkQFeCS0W0rON8SmBz--119" value="Hiển thị trang chi tiết sản phẩm" style="rounded=1;whiteSpace=wrap;html=1;arcSize=40;fontColor=#000000;fillColor=#ffffc0;strokeColor=#ff0000;" parent="mBkQFeCS0W0rON8SmBz--54" vertex="1">
          <mxGeometry x="85" y="600" width="120" height="40" as="geometry" />
        </mxCell>
        <mxCell id="mBkQFeCS0W0rON8SmBz--126" value="Hiển thị trang giỏ hàng" style="rounded=1;whiteSpace=wrap;html=1;arcSize=40;fontColor=#000000;fillColor=#ffffc0;strokeColor=#ff0000;" parent="mBkQFeCS0W0rON8SmBz--54" vertex="1">
          <mxGeometry x="85" y="800" width="120" height="40" as="geometry" />
        </mxCell>
        <mxCell id="wwX1FMIC8D3P-xPPwjGh-11" value="Hiển thị trang thanh toán" style="rounded=1;whiteSpace=wrap;html=1;arcSize=40;fontColor=#000000;fillColor=#ffffc0;strokeColor=#ff0000;" parent="mBkQFeCS0W0rON8SmBz--54" vertex="1">
          <mxGeometry x="85" y="952" width="120" height="40" as="geometry" />
        </mxCell>
        <mxCell id="wwX1FMIC8D3P-xPPwjGh-27" value="Xác nhận giao dịch" style="rounded=1;whiteSpace=wrap;html=1;arcSize=40;fontColor=#000000;fillColor=#ffffc0;strokeColor=#ff0000;" parent="mBkQFeCS0W0rON8SmBz--54" vertex="1">
          <mxGeometry x="75" y="1032" width="120" height="40" as="geometry" />
        </mxCell>
        <mxCell id="wwX1FMIC8D3P-xPPwjGh-28" value="Xác nhận tồn kho" style="rounded=1;whiteSpace=wrap;html=1;arcSize=40;fontColor=#000000;fillColor=#ffffc0;strokeColor=#ff0000;" parent="mBkQFeCS0W0rON8SmBz--54" vertex="1">
          <mxGeometry x="75" y="1102" width="120" height="40" as="geometry" />
        </mxCell>
        <mxCell id="wwX1FMIC8D3P-xPPwjGh-29" value="Vận chuyển" style="rounded=1;whiteSpace=wrap;html=1;arcSize=40;fontColor=#000000;fillColor=#ffffc0;strokeColor=#ff0000;" parent="mBkQFeCS0W0rON8SmBz--54" vertex="1">
          <mxGeometry x="75" y="1172" width="120" height="40" as="geometry" />
        </mxCell>
        <mxCell id="wwX1FMIC8D3P-xPPwjGh-30" value="Hiển thị quá trình vận chuyển" style="rounded=1;whiteSpace=wrap;html=1;arcSize=40;fontColor=#000000;fillColor=#ffffc0;strokeColor=#ff0000;" parent="mBkQFeCS0W0rON8SmBz--54" vertex="1">
          <mxGeometry x="75" y="1242" width="120" height="40" as="geometry" />
        </mxCell>
        <mxCell id="wwX1FMIC8D3P-xPPwjGh-32" value="" style="edgeStyle=orthogonalEdgeStyle;html=1;verticalAlign=bottom;endArrow=open;endSize=8;strokeColor=#ff0000;rounded=0;" parent="mBkQFeCS0W0rON8SmBz--54" edge="1">
          <mxGeometry relative="1" as="geometry">
            <mxPoint x="135" y="1102" as="targetPoint" />
            <mxPoint x="135" y="1092" as="sourcePoint" />
            <Array as="points">
              <mxPoint x="135" y="1072" />
            </Array>
          </mxGeometry>
        </mxCell>
        <mxCell id="wwX1FMIC8D3P-xPPwjGh-33" value="" style="edgeStyle=orthogonalEdgeStyle;html=1;verticalAlign=bottom;endArrow=open;endSize=8;strokeColor=#ff0000;rounded=0;exitX=0.5;exitY=1;exitDx=0;exitDy=0;entryX=0.5;entryY=0;entryDx=0;entryDy=0;" parent="mBkQFeCS0W0rON8SmBz--54" source="wwX1FMIC8D3P-xPPwjGh-28" target="wwX1FMIC8D3P-xPPwjGh-29" edge="1">
          <mxGeometry relative="1" as="geometry">
            <mxPoint x="85" y="1062" as="targetPoint" />
            <mxPoint x="-105" y="1062" as="sourcePoint" />
            <Array as="points" />
          </mxGeometry>
        </mxCell>
        <mxCell id="wwX1FMIC8D3P-xPPwjGh-36" value="" style="ellipse;html=1;shape=endState;fillColor=#000000;strokeColor=#ff0000;" parent="mBkQFeCS0W0rON8SmBz--54" vertex="1">
          <mxGeometry x="115" y="1322" width="30" height="30" as="geometry" />
        </mxCell>
        <mxCell id="wwX1FMIC8D3P-xPPwjGh-39" value="" style="edgeStyle=orthogonalEdgeStyle;html=1;verticalAlign=bottom;endArrow=open;endSize=8;strokeColor=#ff0000;rounded=0;entryX=0.5;entryY=0;entryDx=0;entryDy=0;" parent="mBkQFeCS0W0rON8SmBz--54" target="wwX1FMIC8D3P-xPPwjGh-36" edge="1">
          <mxGeometry relative="1" as="geometry">
            <mxPoint x="143" y="1252" as="targetPoint" />
            <mxPoint x="130" y="1282" as="sourcePoint" />
            <Array as="points">
              <mxPoint x="130" y="1282" />
            </Array>
          </mxGeometry>
        </mxCell>
        <mxCell id="mBkQFeCS0W0rON8SmBz--93" value="no" style="edgeStyle=orthogonalEdgeStyle;html=1;align=left;verticalAlign=bottom;endArrow=open;endSize=8;strokeColor=#ff0000;rounded=0;" parent="1" source="mBkQFeCS0W0rON8SmBz--92" edge="1">
          <mxGeometry x="-1" relative="1" as="geometry">
            <mxPoint x="520" y="550" as="targetPoint" />
            <Array as="points">
              <mxPoint x="360" y="550" />
              <mxPoint x="360" y="550" />
            </Array>
          </mxGeometry>
        </mxCell>
        <mxCell id="mBkQFeCS0W0rON8SmBz--130" value="" style="edgeStyle=orthogonalEdgeStyle;html=1;verticalAlign=bottom;endArrow=open;endSize=8;strokeColor=#ff0000;rounded=0;exitX=0.463;exitY=1.069;exitDx=0;exitDy=0;exitPerimeter=0;entryX=0;entryY=0.5;entryDx=0;entryDy=0;" parent="1" source="mBkQFeCS0W0rON8SmBz--127" target="mBkQFeCS0W0rON8SmBz--126" edge="1">
          <mxGeometry relative="1" as="geometry">
            <mxPoint x="500" y="952" as="targetPoint" />
            <mxPoint x="285.25" y="1060" as="sourcePoint" />
            <Array as="points">
              <mxPoint x="266" y="950" />
              <mxPoint x="530" y="950" />
            </Array>
          </mxGeometry>
        </mxCell>
        <mxCell id="wwX1FMIC8D3P-xPPwjGh-10" value="yes" style="edgeStyle=orthogonalEdgeStyle;html=1;align=left;verticalAlign=top;endArrow=open;endSize=8;strokeColor=#ff0000;rounded=0;entryX=0;entryY=0.5;entryDx=0;entryDy=0;" parent="1" source="wwX1FMIC8D3P-xPPwjGh-8" target="wwX1FMIC8D3P-xPPwjGh-11" edge="1">
          <mxGeometry x="-1" relative="1" as="geometry">
            <mxPoint x="510" y="1130" as="targetPoint" />
            <Array as="points">
              <mxPoint x="270" y="1100" />
            </Array>
          </mxGeometry>
        </mxCell>
        <mxCell id="wwX1FMIC8D3P-xPPwjGh-12" value="" style="edgeStyle=orthogonalEdgeStyle;html=1;verticalAlign=bottom;endArrow=open;endSize=8;strokeColor=#ff0000;rounded=0;entryX=0.5;entryY=0;entryDx=0;entryDy=0;exitX=0.558;exitY=1.038;exitDx=0;exitDy=0;exitPerimeter=0;" parent="1" source="mBkQFeCS0W0rON8SmBz--126" target="wwX1FMIC8D3P-xPPwjGh-8" edge="1">
          <mxGeometry relative="1" as="geometry">
            <mxPoint x="540" y="960" as="targetPoint" />
            <mxPoint x="600" y="990" as="sourcePoint" />
            <Array as="points">
              <mxPoint x="597" y="990" />
              <mxPoint x="270" y="990" />
            </Array>
          </mxGeometry>
        </mxCell>
        <mxCell id="wwX1FMIC8D3P-xPPwjGh-26" value="" style="edgeStyle=orthogonalEdgeStyle;html=1;verticalAlign=bottom;endArrow=open;endSize=8;strokeColor=#ff0000;rounded=0;exitX=0.5;exitY=1;exitDx=0;exitDy=0;" parent="1" source="wwX1FMIC8D3P-xPPwjGh-11" edge="1">
          <mxGeometry relative="1" as="geometry">
            <mxPoint x="270" y="1160" as="targetPoint" />
            <mxPoint x="580" y="1160" as="sourcePoint" />
            <Array as="points">
              <mxPoint x="590" y="1140" />
              <mxPoint x="270" y="1140" />
              <mxPoint x="270" y="1160" />
            </Array>
          </mxGeometry>
        </mxCell>
        <mxCell id="wwX1FMIC8D3P-xPPwjGh-31" value="" style="edgeStyle=orthogonalEdgeStyle;html=1;verticalAlign=bottom;endArrow=open;endSize=8;strokeColor=#ff0000;rounded=0;exitX=1;exitY=0.5;exitDx=0;exitDy=0;entryX=0;entryY=0.5;entryDx=0;entryDy=0;" parent="1" source="wwX1FMIC8D3P-xPPwjGh-25" target="wwX1FMIC8D3P-xPPwjGh-27" edge="1">
          <mxGeometry relative="1" as="geometry">
            <mxPoint x="490" y="1250" as="targetPoint" />
            <mxPoint x="600" y="1130" as="sourcePoint" />
            <Array as="points">
              <mxPoint x="480" y="1180" />
              <mxPoint x="480" y="1180" />
            </Array>
          </mxGeometry>
        </mxCell>
        <mxCell id="wwX1FMIC8D3P-xPPwjGh-34" value="" style="edgeStyle=orthogonalEdgeStyle;html=1;verticalAlign=bottom;endArrow=open;endSize=8;strokeColor=#ff0000;rounded=0;entryX=0.48;entryY=-0.007;entryDx=0;entryDy=0;entryPerimeter=0;" parent="1" target="wwX1FMIC8D3P-xPPwjGh-30" edge="1">
          <mxGeometry relative="1" as="geometry">
            <mxPoint x="590" y="1310" as="targetPoint" />
            <mxPoint x="578" y="1340" as="sourcePoint" />
            <Array as="points">
              <mxPoint x="578" y="1355" />
              <mxPoint x="578" y="1355" />
            </Array>
          </mxGeometry>
        </mxCell>
        <mxCell id="mBkQFeCS0W0rON8SmBz--109" value="" style="edgeStyle=orthogonalEdgeStyle;html=1;verticalAlign=bottom;endArrow=open;endSize=8;strokeColor=#ff0000;rounded=0;exitX=0.5;exitY=1;exitDx=0;exitDy=0;entryX=0.5;entryY=0;entryDx=0;entryDy=0;" parent="1" source="mBkQFeCS0W0rON8SmBz--71" target="mBkQFeCS0W0rON8SmBz--95" edge="1">
          <mxGeometry relative="1" as="geometry">
            <mxPoint x="310" y="390" as="targetPoint" />
            <mxPoint x="680" y="390" as="sourcePoint" />
            <Array as="points">
              <mxPoint x="590" y="390" />
              <mxPoint x="270" y="390" />
            </Array>
          </mxGeometry>
        </mxCell>
        <mxCell id="wwX1FMIC8D3P-xPPwjGh-7" value="" style="edgeStyle=elbowEdgeStyle;elbow=horizontal;verticalAlign=bottom;endArrow=open;endSize=8;strokeColor=#FF0000;endFill=1;rounded=0;entryX=1;entryY=0.5;entryDx=0;entryDy=0;exitX=0.5;exitY=1;exitDx=0;exitDy=0;" parent="1" source="mBkQFeCS0W0rON8SmBz--119" target="mBkQFeCS0W0rON8SmBz--127" edge="1">
          <mxGeometry x="-503.5" y="-214" as="geometry">
            <mxPoint x="590" y="840" as="targetPoint" />
            <mxPoint x="590" y="792" as="sourcePoint" />
            <Array as="points">
              <mxPoint x="590" y="812" />
            </Array>
          </mxGeometry>
        </mxCell>
        <mxCell id="mBkQFeCS0W0rON8SmBz--106" value="" style="edgeStyle=orthogonalEdgeStyle;html=1;verticalAlign=bottom;endArrow=open;endSize=8;strokeColor=#ff0000;rounded=0;exitX=0.582;exitY=1.03;exitDx=0;exitDy=0;entryX=0.5;entryY=0;entryDx=0;entryDy=0;exitPerimeter=0;" parent="1" source="mBkQFeCS0W0rON8SmBz--103" target="BrNjS9KkAqVkk8RL5Kpp-6" edge="1">
          <mxGeometry relative="1" as="geometry">
            <mxPoint x="495" y="702" as="targetPoint" />
            <mxPoint x="460" y="702" as="sourcePoint" />
            <Array as="points">
              <mxPoint x="595" y="660" />
              <mxPoint x="270" y="660" />
            </Array>
          </mxGeometry>
        </mxCell>
        <mxCell id="mBkQFeCS0W0rON8SmBz--105" value="" style="edgeStyle=orthogonalEdgeStyle;html=1;verticalAlign=bottom;endArrow=open;endSize=8;strokeColor=#ff0000;rounded=0;exitX=1;exitY=0.5;exitDx=0;exitDy=0;entryX=1;entryY=0.5;entryDx=0;entryDy=0;" parent="1" source="mBkQFeCS0W0rON8SmBz--102" target="BrNjS9KkAqVkk8RL5Kpp-6" edge="1">
          <mxGeometry relative="1" as="geometry">
            <mxPoint x="575" y="812" as="targetPoint" />
            <mxPoint x="460" y="632" as="sourcePoint" />
            <Array as="points">
              <mxPoint x="660" y="552" />
              <mxPoint x="660" y="692" />
            </Array>
          </mxGeometry>
        </mxCell>
        <mxCell id="BrNjS9KkAqVkk8RL5Kpp-10" value="" style="edgeStyle=elbowEdgeStyle;elbow=horizontal;verticalAlign=bottom;endArrow=open;endSize=8;strokeColor=#FF0000;endFill=1;rounded=0;entryX=0;entryY=0.5;entryDx=0;entryDy=0;exitX=0.5;exitY=1;exitDx=0;exitDy=0;" parent="1" source="BrNjS9KkAqVkk8RL5Kpp-6" target="mBkQFeCS0W0rON8SmBz--119" edge="1">
          <mxGeometry x="-503.5" y="-216" as="geometry">
            <mxPoint x="270" y="730" as="targetPoint" />
            <mxPoint x="550" y="690" as="sourcePoint" />
            <Array as="points">
              <mxPoint x="270" y="710" />
            </Array>
          </mxGeometry>
        </mxCell>
      </root>
    </mxGraphModel>
  </diagram>
  <diagram id="6czsO-iVsADYN2sfzi_h" name="ClassDiagram">
    <mxGraphModel dx="1002" dy="535" grid="1" gridSize="10" guides="1" tooltips="1" connect="1" arrows="1" fold="1" page="1" pageScale="1" pageWidth="1169" pageHeight="827" math="0" shadow="0">
      <root>
        <mxCell id="0" />
        <mxCell id="1" parent="0" />
        <mxCell id="Y8l8oUF6B0YwSN9anFr9-1" value="" style="swimlane;whiteSpace=wrap" parent="1" vertex="1">
          <mxGeometry x="160" y="120" width="761" height="812" as="geometry" />
        </mxCell>
        <mxCell id="Y8l8oUF6B0YwSN9anFr9-14" value="&lt;p style=&quot;margin:0px;margin-top:4px;text-align:center;&quot;&gt;&lt;b&gt;Product&lt;/b&gt;&lt;/p&gt;&lt;hr size=&quot;1&quot; style=&quot;border-style:solid;&quot;&gt;&lt;p style=&quot;margin:0px;margin-left:4px;&quot;&gt;+ ProductId:int&lt;/p&gt;&lt;p style=&quot;margin:0px;margin-left:4px;&quot;&gt;+ ProductName:string&lt;/p&gt;&lt;p style=&quot;margin:0px;margin-left:4px;&quot;&gt;+Description:string&lt;/p&gt;&lt;p style=&quot;margin:0px;margin-left:4px;&quot;&gt;+Price:double&lt;/p&gt;&lt;p style=&quot;margin:0px;margin-left:4px;&quot;&gt;&lt;br&gt;&lt;/p&gt;&lt;hr size=&quot;1&quot; style=&quot;border-style:solid;&quot;&gt;&lt;p style=&quot;margin:0px;margin-left:4px;&quot;&gt;+addProduct()&lt;/p&gt;&lt;p style=&quot;margin:0px;margin-left:4px;&quot;&gt;+updateProduct()&lt;/p&gt;&lt;p style=&quot;margin:0px;margin-left:4px;&quot;&gt;+deleteProduct()&lt;/p&gt;" style="verticalAlign=top;align=left;overflow=fill;html=1;whiteSpace=wrap;" parent="Y8l8oUF6B0YwSN9anFr9-1" vertex="1">
          <mxGeometry x="40" y="314" width="160" height="184" as="geometry" />
        </mxCell>
        <mxCell id="PU7tPuQ8D1ogT-9J5B3f-1" value="&lt;p style=&quot;margin:0px;margin-top:4px;text-align:center;&quot;&gt;&lt;b&gt;Customer&lt;/b&gt;&lt;br&gt;&lt;/p&gt;&lt;hr size=&quot;1&quot; style=&quot;border-style:solid;&quot;&gt;&lt;p style=&quot;margin: 0px 0px 0px 4px;&quot;&gt;&lt;span style=&quot;background-color: initial;&quot;&gt;+CustomerId: int&lt;/span&gt;&lt;br&gt;&lt;/p&gt;&lt;p style=&quot;margin: 0px 0px 0px 4px;&quot;&gt;+Phone: string&lt;span style=&quot;background-color: initial;&quot;&gt;&lt;br&gt;&lt;/span&gt;&lt;/p&gt;&lt;p style=&quot;margin: 0px 0px 0px 4px;&quot;&gt;+Email:string&lt;/p&gt;&lt;p style=&quot;margin: 0px 0px 0px 4px;&quot;&gt;+Password:string&lt;/p&gt;&lt;p style=&quot;margin: 0px 0px 0px 4px;&quot;&gt;+RegistrationDate:date&lt;/p&gt;&lt;p style=&quot;margin: 0px 0px 0px 4px;&quot;&gt;+isVerified:boolean&lt;/p&gt;&lt;hr size=&quot;1&quot; style=&quot;border-style:solid;&quot;&gt;&lt;p style=&quot;margin:0px;margin-left:4px;&quot;&gt;+register()&lt;/p&gt;&lt;p style=&quot;margin:0px;margin-left:4px;&quot;&gt;+login()&lt;/p&gt;&lt;p style=&quot;margin:0px;margin-left:4px;&quot;&gt;+updateProfile()&lt;/p&gt;" style="verticalAlign=top;align=left;overflow=fill;html=1;whiteSpace=wrap;" parent="Y8l8oUF6B0YwSN9anFr9-1" vertex="1">
          <mxGeometry x="40" y="80" width="160" height="200" as="geometry" />
        </mxCell>
        <mxCell id="PU7tPuQ8D1ogT-9J5B3f-2" value="&lt;p style=&quot;margin:0px;margin-top:4px;text-align:center;&quot;&gt;&lt;b&gt;Order&lt;/b&gt;&lt;/p&gt;&lt;hr size=&quot;1&quot; style=&quot;border-style:solid;&quot;&gt;&lt;p style=&quot;margin: 0px 0px 0px 4px;&quot;&gt;&lt;span style=&quot;background-color: initial;&quot;&gt;+OrderId: int&lt;/span&gt;&lt;br&gt;&lt;/p&gt;&lt;p style=&quot;margin: 0px 0px 0px 4px;&quot;&gt;+OrderDate: date&lt;span style=&quot;background-color: initial;&quot;&gt;&lt;br&gt;&lt;/span&gt;&lt;/p&gt;&lt;p style=&quot;margin: 0px 0px 0px 4px;&quot;&gt;+Status:string&lt;/p&gt;&lt;p style=&quot;margin: 0px 0px 0px 4px;&quot;&gt;+TotalAmount: double&lt;/p&gt;&lt;p style=&quot;margin: 0px 0px 0px 4px;&quot;&gt;+ShippingAddress: Address&lt;/p&gt;&lt;p style=&quot;margin: 0px 0px 0px 4px;&quot;&gt;+BillingAddress: Address&lt;/p&gt;&lt;hr size=&quot;1&quot; style=&quot;border-style:solid;&quot;&gt;&lt;p style=&quot;margin:0px;margin-left:4px;&quot;&gt;+placeOrder()&lt;/p&gt;&lt;p style=&quot;margin:0px;margin-left:4px;&quot;&gt;+cancelOrder()&lt;/p&gt;&lt;p style=&quot;margin:0px;margin-left:4px;&quot;&gt;+trackOrder&lt;/p&gt;" style="verticalAlign=top;align=left;overflow=fill;html=1;whiteSpace=wrap;" parent="Y8l8oUF6B0YwSN9anFr9-1" vertex="1">
          <mxGeometry x="280" y="80" width="160" height="200" as="geometry" />
        </mxCell>
        <mxCell id="PU7tPuQ8D1ogT-9J5B3f-3" value="&lt;p style=&quot;margin:0px;margin-top:4px;text-align:center;&quot;&gt;&lt;b&gt;Payment&lt;/b&gt;&lt;/p&gt;&lt;hr size=&quot;1&quot; style=&quot;border-style:solid;&quot;&gt;&lt;p style=&quot;margin: 0px 0px 0px 4px;&quot;&gt;+PaymentId:int&lt;/p&gt;&lt;p style=&quot;margin: 0px 0px 0px 4px;&quot;&gt;+PaymentDate:date&lt;/p&gt;&lt;p style=&quot;margin: 0px 0px 0px 4px;&quot;&gt;+Amount:double&lt;/p&gt;&lt;p style=&quot;margin: 0px 0px 0px 4px;&quot;&gt;+PaymentMethod:string&lt;/p&gt;&lt;p style=&quot;margin: 0px 0px 0px 4px;&quot;&gt;+PaymentStatus:string&lt;/p&gt;&lt;p style=&quot;margin: 0px 0px 0px 4px;&quot;&gt;+TransactionId:string&lt;/p&gt;&lt;hr size=&quot;1&quot; style=&quot;border-style:solid;&quot;&gt;&lt;p style=&quot;margin:0px;margin-left:4px;&quot;&gt;+processPayment()&lt;/p&gt;&lt;p style=&quot;margin:0px;margin-left:4px;&quot;&gt;+refundPayment()&lt;/p&gt;" style="verticalAlign=top;align=left;overflow=fill;html=1;whiteSpace=wrap;" parent="Y8l8oUF6B0YwSN9anFr9-1" vertex="1">
          <mxGeometry x="520" y="80" width="160" height="200" as="geometry" />
        </mxCell>
        <mxCell id="PU7tPuQ8D1ogT-9J5B3f-4" value="&lt;p style=&quot;margin:0px;margin-top:4px;text-align:center;&quot;&gt;&lt;b&gt;OrderItem&lt;/b&gt;&lt;/p&gt;&lt;hr size=&quot;1&quot; style=&quot;border-style:solid;&quot;&gt;&lt;p style=&quot;margin: 0px 0px 0px 4px;&quot;&gt;+OrderItemId:int&lt;/p&gt;&lt;p style=&quot;margin: 0px 0px 0px 4px;&quot;&gt;+Quantity:int&lt;/p&gt;&lt;p style=&quot;margin: 0px 0px 0px 4px;&quot;&gt;+Subtotal:double&lt;/p&gt;&lt;p style=&quot;margin: 0px 0px 0px 4px;&quot;&gt;+product:Product&lt;/p&gt;&lt;p style=&quot;margin:0px;margin-left:4px;&quot;&gt;&lt;br&gt;&lt;/p&gt;" style="verticalAlign=top;align=left;overflow=fill;html=1;whiteSpace=wrap;" parent="Y8l8oUF6B0YwSN9anFr9-1" vertex="1">
          <mxGeometry x="280" y="320" width="160" height="110" as="geometry" />
        </mxCell>
        <mxCell id="PU7tPuQ8D1ogT-9J5B3f-5" value="&lt;p style=&quot;margin:0px;margin-top:4px;text-align:center;&quot;&gt;&lt;b&gt;ShoppingCart&lt;/b&gt;&lt;/p&gt;&lt;hr size=&quot;1&quot; style=&quot;border-style:solid;&quot;&gt;&lt;p style=&quot;margin: 0px 0px 0px 4px;&quot;&gt;+CartId:int&lt;/p&gt;&lt;p style=&quot;margin: 0px 0px 0px 4px;&quot;&gt;+CreationDate:date&lt;/p&gt;&lt;p style=&quot;margin: 0px 0px 0px 4px;&quot;&gt;+TotalQuantity:int&lt;/p&gt;&lt;p style=&quot;margin: 0px 0px 0px 4px;&quot;&gt;+TotalPrice:double&lt;/p&gt;&lt;p style=&quot;margin: 0px 0px 0px 4px;&quot;&gt;+Customer:Customer&lt;/p&gt;&lt;hr size=&quot;1&quot; style=&quot;border-style:solid;&quot;&gt;&lt;p style=&quot;margin:0px;margin-left:4px;&quot;&gt;+addItem()&lt;/p&gt;&lt;p style=&quot;margin:0px;margin-left:4px;&quot;&gt;+removeItem()&lt;/p&gt;&lt;p style=&quot;margin:0px;margin-left:4px;&quot;&gt;+updateQuantity()&lt;/p&gt;&lt;p style=&quot;margin:0px;margin-left:4px;&quot;&gt;+clearCart()&lt;/p&gt;" style="verticalAlign=top;align=left;overflow=fill;html=1;whiteSpace=wrap;" parent="Y8l8oUF6B0YwSN9anFr9-1" vertex="1">
          <mxGeometry x="520" y="320" width="160" height="200" as="geometry" />
        </mxCell>
        <mxCell id="PU7tPuQ8D1ogT-9J5B3f-6" value="&lt;p style=&quot;margin:0px;margin-top:4px;text-align:center;&quot;&gt;&lt;b&gt;Address&lt;/b&gt;&lt;/p&gt;&lt;hr size=&quot;1&quot; style=&quot;border-style:solid;&quot;&gt;&lt;p style=&quot;margin: 0px 0px 0px 4px;&quot;&gt;+AddressId:int&lt;/p&gt;&lt;p style=&quot;margin: 0px 0px 0px 4px;&quot;&gt;+Street:string&lt;/p&gt;&lt;p style=&quot;margin: 0px 0px 0px 4px;&quot;&gt;+District:string&lt;/p&gt;&lt;p style=&quot;margin: 0px 0px 0px 4px;&quot;&gt;+City:string&lt;/p&gt;&lt;p style=&quot;margin: 0px 0px 0px 4px;&quot;&gt;+Province:string&lt;/p&gt;&lt;p style=&quot;margin: 0px 0px 0px 4px;&quot;&gt;+AddressType:string&lt;/p&gt;&lt;p style=&quot;margin: 0px 0px 0px 4px;&quot;&gt;&lt;br&gt;&lt;/p&gt;&lt;hr size=&quot;1&quot; style=&quot;border-style:solid;&quot;&gt;&lt;p style=&quot;margin:0px;margin-left:4px;&quot;&gt;+addAddress()&lt;/p&gt;&lt;p style=&quot;margin:0px;margin-left:4px;&quot;&gt;+updateAddress()&lt;/p&gt;&lt;p style=&quot;margin:0px;margin-left:4px;&quot;&gt;+deleteAddress()&lt;/p&gt;" style="verticalAlign=top;align=left;overflow=fill;html=1;whiteSpace=wrap;" parent="Y8l8oUF6B0YwSN9anFr9-1" vertex="1">
          <mxGeometry x="40" y="600" width="160" height="200" as="geometry" />
        </mxCell>
        <mxCell id="PU7tPuQ8D1ogT-9J5B3f-7" value="&lt;p style=&quot;margin:0px;margin-top:4px;text-align:center;&quot;&gt;&lt;b&gt;Invoice&lt;/b&gt;&lt;/p&gt;&lt;hr size=&quot;1&quot; style=&quot;border-style:solid;&quot;&gt;&lt;p style=&quot;margin: 0px 0px 0px 4px;&quot;&gt;+InvoiceId:int&lt;/p&gt;&lt;p style=&quot;margin: 0px 0px 0px 4px;&quot;&gt;+InvoiceDate:date&lt;/p&gt;&lt;p style=&quot;margin: 0px 0px 0px 4px;&quot;&gt;+BillingAddress:Address&lt;/p&gt;&lt;p style=&quot;margin: 0px 0px 0px 4px;&quot;&gt;+ShippingAddress:Address&lt;/p&gt;&lt;p style=&quot;margin: 0px 0px 0px 4px;&quot;&gt;+TotalAmount:double&lt;/p&gt;&lt;p style=&quot;margin: 0px 0px 0px 4px;&quot;&gt;+Order:Order&lt;/p&gt;&lt;hr size=&quot;1&quot; style=&quot;border-style:solid;&quot;&gt;&lt;p style=&quot;margin:0px;margin-left:4px;&quot;&gt;+generateInvoice()&lt;/p&gt;&lt;p style=&quot;margin:0px;margin-left:4px;&quot;&gt;+sendInvoice()&lt;/p&gt;" style="verticalAlign=top;align=left;overflow=fill;html=1;whiteSpace=wrap;" parent="Y8l8oUF6B0YwSN9anFr9-1" vertex="1">
          <mxGeometry x="520" y="600" width="160" height="200" as="geometry" />
        </mxCell>
        <mxCell id="PU7tPuQ8D1ogT-9J5B3f-8" value="" style="endArrow=block;startArrow=block;endFill=1;startFill=1;html=1;rounded=0;entryX=-0.005;entryY=0.082;entryDx=0;entryDy=0;entryPerimeter=0;exitX=0.999;exitY=0.056;exitDx=0;exitDy=0;exitPerimeter=0;" parent="Y8l8oUF6B0YwSN9anFr9-1" source="PU7tPuQ8D1ogT-9J5B3f-6" target="PU7tPuQ8D1ogT-9J5B3f-7" edge="1">
          <mxGeometry width="160" relative="1" as="geometry">
            <mxPoint x="265" y="610" as="sourcePoint" />
            <mxPoint x="425" y="610" as="targetPoint" />
          </mxGeometry>
        </mxCell>
        <mxCell id="PU7tPuQ8D1ogT-9J5B3f-9" value="" style="endArrow=block;startArrow=block;endFill=1;startFill=1;html=1;rounded=0;exitX=0.992;exitY=0.073;exitDx=0;exitDy=0;exitPerimeter=0;edgeStyle=orthogonalEdgeStyle;entryX=-0.002;entryY=0.025;entryDx=0;entryDy=0;entryPerimeter=0;" parent="Y8l8oUF6B0YwSN9anFr9-1" source="PU7tPuQ8D1ogT-9J5B3f-2" target="PU7tPuQ8D1ogT-9J5B3f-7" edge="1">
          <mxGeometry width="160" relative="1" as="geometry">
            <mxPoint x="220.5" y="530" as="sourcePoint" />
            <mxPoint x="520" y="610" as="targetPoint" />
            <Array as="points">
              <mxPoint x="470" y="95" />
              <mxPoint x="470" y="605" />
            </Array>
          </mxGeometry>
        </mxCell>
        <mxCell id="PU7tPuQ8D1ogT-9J5B3f-10" value="" style="endArrow=block;startArrow=block;endFill=1;startFill=1;html=1;rounded=0;exitX=0.993;exitY=0.099;exitDx=0;exitDy=0;exitPerimeter=0;entryX=-0.029;entryY=0.067;entryDx=0;entryDy=0;entryPerimeter=0;edgeStyle=orthogonalEdgeStyle;" parent="Y8l8oUF6B0YwSN9anFr9-1" source="PU7tPuQ8D1ogT-9J5B3f-1" edge="1">
          <mxGeometry width="160" relative="1" as="geometry">
            <mxPoint x="199.9999999999998" y="91.20000000000005" as="sourcePoint" />
            <mxPoint x="514.3999999999996" y="333.4000000000001" as="targetPoint" />
            <Array as="points">
              <mxPoint x="210" y="100" />
              <mxPoint x="210" y="300" />
              <mxPoint x="490" y="300" />
              <mxPoint x="490" y="333" />
            </Array>
          </mxGeometry>
        </mxCell>
        <mxCell id="PU7tPuQ8D1ogT-9J5B3f-11" value="" style="endArrow=block;startArrow=block;endFill=1;startFill=1;html=1;rounded=0;exitX=-0.029;exitY=0.079;exitDx=0;exitDy=0;exitPerimeter=0;entryX=0;entryY=0.1;entryDx=0;entryDy=0;entryPerimeter=0;edgeStyle=orthogonalEdgeStyle;" parent="Y8l8oUF6B0YwSN9anFr9-1" edge="1">
          <mxGeometry width="160" relative="1" as="geometry">
            <mxPoint x="35.360000000000014" y="90.00000000000001" as="sourcePoint" />
            <mxPoint x="40" y="614.2" as="targetPoint" />
            <Array as="points">
              <mxPoint x="10" y="90.2" />
              <mxPoint x="10" y="614.2" />
            </Array>
          </mxGeometry>
        </mxCell>
        <mxCell id="PU7tPuQ8D1ogT-9J5B3f-12" value="" style="endArrow=block;startArrow=block;endFill=1;startFill=1;html=1;rounded=0;edgeStyle=orthogonalEdgeStyle;entryX=0;entryY=0.05;entryDx=0;entryDy=0;entryPerimeter=0;" parent="Y8l8oUF6B0YwSN9anFr9-1" target="PU7tPuQ8D1ogT-9J5B3f-2" edge="1">
          <mxGeometry width="160" relative="1" as="geometry">
            <mxPoint x="201" y="90" as="sourcePoint" />
            <mxPoint x="270" y="90" as="targetPoint" />
            <Array as="points">
              <mxPoint x="201" y="90" />
            </Array>
          </mxGeometry>
        </mxCell>
        <mxCell id="PU7tPuQ8D1ogT-9J5B3f-13" value="" style="endArrow=block;startArrow=block;endFill=1;startFill=1;html=1;rounded=0;edgeStyle=orthogonalEdgeStyle;entryX=0.5;entryY=0;entryDx=0;entryDy=0;exitX=0.5;exitY=1;exitDx=0;exitDy=0;" parent="Y8l8oUF6B0YwSN9anFr9-1" source="PU7tPuQ8D1ogT-9J5B3f-2" target="PU7tPuQ8D1ogT-9J5B3f-4" edge="1">
          <mxGeometry width="160" relative="1" as="geometry">
            <mxPoint x="211" y="100" as="sourcePoint" />
            <mxPoint x="290" y="100" as="targetPoint" />
            <Array as="points">
              <mxPoint x="360" y="310" />
              <mxPoint x="360" y="310" />
            </Array>
          </mxGeometry>
        </mxCell>
        <mxCell id="PU7tPuQ8D1ogT-9J5B3f-15" value="" style="endArrow=block;startArrow=block;endFill=1;startFill=1;html=1;rounded=0;exitX=1.003;exitY=0.032;exitDx=0;exitDy=0;exitPerimeter=0;entryX=-0.011;entryY=0.033;entryDx=0;entryDy=0;entryPerimeter=0;" parent="Y8l8oUF6B0YwSN9anFr9-1" source="PU7tPuQ8D1ogT-9J5B3f-2" target="PU7tPuQ8D1ogT-9J5B3f-3" edge="1">
          <mxGeometry width="160" relative="1" as="geometry">
            <mxPoint x="310" y="200" as="sourcePoint" />
            <mxPoint x="470" y="200" as="targetPoint" />
          </mxGeometry>
        </mxCell>
        <mxCell id="PU7tPuQ8D1ogT-9J5B3f-16" value="" style="endArrow=block;startArrow=block;endFill=1;startFill=1;html=1;rounded=0;" parent="Y8l8oUF6B0YwSN9anFr9-1" edge="1">
          <mxGeometry width="160" relative="1" as="geometry">
            <mxPoint x="200" y="330" as="sourcePoint" />
            <mxPoint x="280" y="330" as="targetPoint" />
          </mxGeometry>
        </mxCell>
        <mxCell id="PU7tPuQ8D1ogT-9J5B3f-17" value="1" style="text;html=1;align=center;verticalAlign=middle;resizable=0;points=[];autosize=1;strokeColor=none;fillColor=none;fontSize=6;" parent="Y8l8oUF6B0YwSN9anFr9-1" vertex="1">
          <mxGeometry x="200" y="310" width="30" height="20" as="geometry" />
        </mxCell>
        <mxCell id="PU7tPuQ8D1ogT-9J5B3f-18" value="n" style="text;html=1;align=center;verticalAlign=middle;resizable=0;points=[];autosize=1;strokeColor=none;fillColor=none;fontSize=6;" parent="Y8l8oUF6B0YwSN9anFr9-1" vertex="1">
          <mxGeometry x="250" y="310" width="30" height="20" as="geometry" />
        </mxCell>
        <mxCell id="PU7tPuQ8D1ogT-9J5B3f-19" value="1" style="text;html=1;align=center;verticalAlign=middle;resizable=0;points=[];autosize=1;strokeColor=none;fillColor=none;fontSize=6;" parent="Y8l8oUF6B0YwSN9anFr9-1" vertex="1">
          <mxGeometry x="200" y="330" width="30" height="20" as="geometry" />
        </mxCell>
        <mxCell id="PU7tPuQ8D1ogT-9J5B3f-20" value="1" style="text;html=1;align=center;verticalAlign=middle;resizable=0;points=[];autosize=1;strokeColor=none;fillColor=none;fontSize=6;" parent="Y8l8oUF6B0YwSN9anFr9-1" vertex="1">
          <mxGeometry x="250" y="330" width="30" height="20" as="geometry" />
        </mxCell>
        <mxCell id="PU7tPuQ8D1ogT-9J5B3f-21" value="1" style="text;html=1;align=center;verticalAlign=middle;resizable=0;points=[];autosize=1;strokeColor=none;fillColor=none;fontSize=6;" parent="Y8l8oUF6B0YwSN9anFr9-1" vertex="1">
          <mxGeometry x="200" y="70" width="30" height="20" as="geometry" />
        </mxCell>
        <mxCell id="PU7tPuQ8D1ogT-9J5B3f-22" value="n" style="text;html=1;align=center;verticalAlign=middle;resizable=0;points=[];autosize=1;strokeColor=none;fillColor=none;fontSize=6;" parent="Y8l8oUF6B0YwSN9anFr9-1" vertex="1">
          <mxGeometry x="250" y="70" width="30" height="20" as="geometry" />
        </mxCell>
        <mxCell id="PU7tPuQ8D1ogT-9J5B3f-23" value="1" style="text;html=1;align=center;verticalAlign=middle;resizable=0;points=[];autosize=1;strokeColor=none;fillColor=none;fontSize=6;" parent="Y8l8oUF6B0YwSN9anFr9-1" vertex="1">
          <mxGeometry x="200" y="90" width="30" height="20" as="geometry" />
        </mxCell>
        <mxCell id="PU7tPuQ8D1ogT-9J5B3f-24" value="1" style="text;html=1;align=center;verticalAlign=middle;resizable=0;points=[];autosize=1;strokeColor=none;fillColor=none;fontSize=6;" parent="Y8l8oUF6B0YwSN9anFr9-1" vertex="1">
          <mxGeometry x="250" y="90" width="30" height="20" as="geometry" />
        </mxCell>
        <mxCell id="PU7tPuQ8D1ogT-9J5B3f-25" value="1" style="text;html=1;align=center;verticalAlign=middle;resizable=0;points=[];autosize=1;strokeColor=none;fillColor=none;fontSize=6;" parent="Y8l8oUF6B0YwSN9anFr9-1" vertex="1">
          <mxGeometry x="440" y="90" width="30" height="20" as="geometry" />
        </mxCell>
        <mxCell id="PU7tPuQ8D1ogT-9J5B3f-26" value="1" style="text;html=1;align=center;verticalAlign=middle;resizable=0;points=[];autosize=1;strokeColor=none;fillColor=none;fontSize=6;" parent="Y8l8oUF6B0YwSN9anFr9-1" vertex="1">
          <mxGeometry x="490" y="90" width="30" height="20" as="geometry" />
        </mxCell>
        <mxCell id="PU7tPuQ8D1ogT-9J5B3f-27" value="1" style="text;html=1;align=center;verticalAlign=middle;resizable=0;points=[];autosize=1;strokeColor=none;fillColor=none;fontSize=6;" parent="Y8l8oUF6B0YwSN9anFr9-1" vertex="1">
          <mxGeometry x="440" y="70" width="30" height="20" as="geometry" />
        </mxCell>
        <mxCell id="PU7tPuQ8D1ogT-9J5B3f-28" value="1" style="text;html=1;align=center;verticalAlign=middle;resizable=0;points=[];autosize=1;strokeColor=none;fillColor=none;fontSize=6;" parent="Y8l8oUF6B0YwSN9anFr9-1" vertex="1">
          <mxGeometry x="490" y="70" width="30" height="20" as="geometry" />
        </mxCell>
        <mxCell id="PU7tPuQ8D1ogT-9J5B3f-29" value="1" style="text;html=1;align=center;verticalAlign=middle;resizable=0;points=[];autosize=1;strokeColor=none;fillColor=none;fontSize=6;" parent="Y8l8oUF6B0YwSN9anFr9-1" vertex="1">
          <mxGeometry x="330" y="280" width="30" height="20" as="geometry" />
        </mxCell>
        <mxCell id="PU7tPuQ8D1ogT-9J5B3f-30" value="n" style="text;html=1;align=center;verticalAlign=middle;resizable=0;points=[];autosize=1;strokeColor=none;fillColor=none;fontSize=6;" parent="Y8l8oUF6B0YwSN9anFr9-1" vertex="1">
          <mxGeometry x="330" y="300" width="30" height="20" as="geometry" />
        </mxCell>
        <mxCell id="PU7tPuQ8D1ogT-9J5B3f-31" value="1" style="text;html=1;align=center;verticalAlign=middle;resizable=0;points=[];autosize=1;strokeColor=none;fillColor=none;fontSize=6;" parent="Y8l8oUF6B0YwSN9anFr9-1" vertex="1">
          <mxGeometry x="360" y="280" width="30" height="20" as="geometry" />
        </mxCell>
        <mxCell id="PU7tPuQ8D1ogT-9J5B3f-32" value="1" style="text;html=1;align=center;verticalAlign=middle;resizable=0;points=[];autosize=1;strokeColor=none;fillColor=none;fontSize=6;" parent="Y8l8oUF6B0YwSN9anFr9-1" vertex="1">
          <mxGeometry x="360" y="300" width="30" height="20" as="geometry" />
        </mxCell>
        <mxCell id="PU7tPuQ8D1ogT-9J5B3f-33" value="1" style="text;html=1;align=center;verticalAlign=middle;resizable=0;points=[];autosize=1;strokeColor=none;fillColor=none;fontSize=6;" parent="Y8l8oUF6B0YwSN9anFr9-1" vertex="1">
          <mxGeometry x="490" y="580" width="30" height="20" as="geometry" />
        </mxCell>
        <mxCell id="PU7tPuQ8D1ogT-9J5B3f-34" value="1" style="text;html=1;align=center;verticalAlign=middle;resizable=0;points=[];autosize=1;strokeColor=none;fillColor=none;fontSize=6;" parent="Y8l8oUF6B0YwSN9anFr9-1" vertex="1">
          <mxGeometry x="450" y="100" width="30" height="20" as="geometry" />
        </mxCell>
        <mxCell id="PU7tPuQ8D1ogT-9J5B3f-35" value="1" style="text;html=1;align=center;verticalAlign=middle;resizable=0;points=[];autosize=1;strokeColor=none;fillColor=none;fontSize=6;" parent="Y8l8oUF6B0YwSN9anFr9-1" vertex="1">
          <mxGeometry x="490" y="620" width="30" height="20" as="geometry" />
        </mxCell>
        <mxCell id="PU7tPuQ8D1ogT-9J5B3f-36" value="1" style="text;html=1;align=center;verticalAlign=middle;resizable=0;points=[];autosize=1;strokeColor=none;fillColor=none;fontSize=6;" parent="Y8l8oUF6B0YwSN9anFr9-1" vertex="1">
          <mxGeometry x="200" y="610" width="30" height="20" as="geometry" />
        </mxCell>
        <mxCell id="PU7tPuQ8D1ogT-9J5B3f-37" value="1" style="text;html=1;align=center;verticalAlign=middle;resizable=0;points=[];autosize=1;strokeColor=none;fillColor=none;fontSize=6;" parent="Y8l8oUF6B0YwSN9anFr9-1" vertex="1">
          <mxGeometry x="10" y="70" width="30" height="20" as="geometry" />
        </mxCell>
        <mxCell id="PU7tPuQ8D1ogT-9J5B3f-38" value="n" style="text;html=1;align=center;verticalAlign=middle;resizable=0;points=[];autosize=1;strokeColor=none;fillColor=none;fontSize=6;" parent="Y8l8oUF6B0YwSN9anFr9-1" vertex="1">
          <mxGeometry x="10" y="590" width="30" height="20" as="geometry" />
        </mxCell>
        <mxCell id="PU7tPuQ8D1ogT-9J5B3f-39" value="1" style="text;html=1;align=center;verticalAlign=middle;resizable=0;points=[];autosize=1;strokeColor=none;fillColor=none;fontSize=6;" parent="Y8l8oUF6B0YwSN9anFr9-1" vertex="1">
          <mxGeometry x="10" y="620" width="30" height="20" as="geometry" />
        </mxCell>
        <mxCell id="PU7tPuQ8D1ogT-9J5B3f-40" value="1" style="text;html=1;align=center;verticalAlign=middle;resizable=0;points=[];autosize=1;strokeColor=none;fillColor=none;fontSize=6;" parent="Y8l8oUF6B0YwSN9anFr9-1" vertex="1">
          <mxGeometry x="10" y="90" width="30" height="20" as="geometry" />
        </mxCell>
        <mxCell id="PU7tPuQ8D1ogT-9J5B3f-41" value="1" style="text;html=1;align=center;verticalAlign=middle;resizable=0;points=[];autosize=1;strokeColor=none;fillColor=none;fontSize=6;" parent="Y8l8oUF6B0YwSN9anFr9-1" vertex="1">
          <mxGeometry x="490" y="314" width="30" height="20" as="geometry" />
        </mxCell>
        <mxCell id="PU7tPuQ8D1ogT-9J5B3f-42" value="1" style="text;html=1;align=center;verticalAlign=middle;resizable=0;points=[];autosize=1;strokeColor=none;fillColor=none;fontSize=6;" parent="Y8l8oUF6B0YwSN9anFr9-1" vertex="1">
          <mxGeometry x="490" y="334" width="30" height="20" as="geometry" />
        </mxCell>
        <mxCell id="PU7tPuQ8D1ogT-9J5B3f-43" value="1" style="text;html=1;align=center;verticalAlign=middle;resizable=0;points=[];autosize=1;strokeColor=none;fillColor=none;fontSize=6;" parent="Y8l8oUF6B0YwSN9anFr9-1" vertex="1">
          <mxGeometry x="200" y="110" width="30" height="20" as="geometry" />
        </mxCell>
        <mxCell id="PU7tPuQ8D1ogT-9J5B3f-44" value="1" style="text;html=1;align=center;verticalAlign=middle;resizable=0;points=[];autosize=1;strokeColor=none;fillColor=none;fontSize=6;" parent="Y8l8oUF6B0YwSN9anFr9-1" vertex="1">
          <mxGeometry x="190" y="110" width="30" height="20" as="geometry" />
        </mxCell>
      </root>
    </mxGraphModel>
  </diagram>
  <diagram id="vVdTA7TtUcACLmjn4LWh" name="UserCaseDiagram">
    <mxGraphModel dx="1002" dy="535" grid="1" gridSize="10" guides="1" tooltips="1" connect="1" arrows="1" fold="1" page="1" pageScale="1" pageWidth="1169" pageHeight="827" math="0" shadow="0">
      <root>
        <mxCell id="0" />
        <mxCell id="1" parent="0" />
        <mxCell id="jBHjeXk6TKFIiGZsTdAt-1" value="" style="rounded=0;whiteSpace=wrap;html=1;" vertex="1" parent="1">
          <mxGeometry x="400" y="50" width="730" height="1070" as="geometry" />
        </mxCell>
        <mxCell id="gFtiI1naevWEGt4AvRQX-1" value="Khách hàng" style="shape=umlActor;verticalLabelPosition=bottom;verticalAlign=top;html=1;outlineConnect=0;" vertex="1" parent="1">
          <mxGeometry x="220" y="354" width="30" height="60" as="geometry" />
        </mxCell>
        <mxCell id="gFtiI1naevWEGt4AvRQX-2" value="Xem sản phẩm" style="ellipse;whiteSpace=wrap;html=1;" vertex="1" parent="1">
          <mxGeometry x="440" y="200" width="120" height="80" as="geometry" />
        </mxCell>
        <mxCell id="gFtiI1naevWEGt4AvRQX-3" value="Lọc sản phẩm" style="ellipse;whiteSpace=wrap;html=1;" vertex="1" parent="1">
          <mxGeometry x="640" y="130" width="120" height="80" as="geometry" />
        </mxCell>
        <mxCell id="gFtiI1naevWEGt4AvRQX-4" value="Xem chi tiết sản phẩm" style="ellipse;whiteSpace=wrap;html=1;" vertex="1" parent="1">
          <mxGeometry x="440" y="320" width="120" height="80" as="geometry" />
        </mxCell>
        <mxCell id="gFtiI1naevWEGt4AvRQX-5" value="Giỏ hàng" style="ellipse;whiteSpace=wrap;html=1;" vertex="1" parent="1">
          <mxGeometry x="640" y="320" width="120" height="80" as="geometry" />
        </mxCell>
        <mxCell id="gFtiI1naevWEGt4AvRQX-6" value="Đăng ký" style="ellipse;whiteSpace=wrap;html=1;" vertex="1" parent="1">
          <mxGeometry x="640" y="680" width="120" height="80" as="geometry" />
        </mxCell>
        <mxCell id="gFtiI1naevWEGt4AvRQX-7" value="Bình luận sản phẩm" style="ellipse;whiteSpace=wrap;html=1;" vertex="1" parent="1">
          <mxGeometry x="640" y="440" width="120" height="80" as="geometry" />
        </mxCell>
        <mxCell id="gFtiI1naevWEGt4AvRQX-8" value="Xem lịch sử thanh toán" style="ellipse;whiteSpace=wrap;html=1;" vertex="1" parent="1">
          <mxGeometry x="640" y="840" width="120" height="80" as="geometry" />
        </mxCell>
        <mxCell id="gFtiI1naevWEGt4AvRQX-9" value="Đánh giá sản phẩm" style="ellipse;whiteSpace=wrap;html=1;" vertex="1" parent="1">
          <mxGeometry x="640" y="560" width="120" height="80" as="geometry" />
        </mxCell>
        <mxCell id="gFtiI1naevWEGt4AvRQX-10" value="Đăng nhập" style="ellipse;whiteSpace=wrap;html=1;" vertex="1" parent="1">
          <mxGeometry x="440" y="680" width="120" height="80" as="geometry" />
        </mxCell>
        <mxCell id="gFtiI1naevWEGt4AvRQX-11" value="Thanh toán" style="ellipse;whiteSpace=wrap;html=1;" vertex="1" parent="1">
          <mxGeometry x="440" y="840" width="120" height="80" as="geometry" />
        </mxCell>
        <mxCell id="gFtiI1naevWEGt4AvRQX-12" value="Tìm kiếm" style="ellipse;whiteSpace=wrap;html=1;" vertex="1" parent="1">
          <mxGeometry x="640" y="20" width="120" height="80" as="geometry" />
        </mxCell>
        <mxCell id="gFtiI1naevWEGt4AvRQX-13" value="Quản trị viên" style="shape=umlActor;verticalLabelPosition=bottom;verticalAlign=top;html=1;outlineConnect=0;" vertex="1" parent="1">
          <mxGeometry x="1169" y="600" width="30" height="60" as="geometry" />
        </mxCell>
        <mxCell id="gFtiI1naevWEGt4AvRQX-18" value="&amp;lt;&amp;lt;include&amp;gt;&amp;gt;" style="endArrow=open;endSize=12;dashed=1;html=1;rounded=0;exitX=1;exitY=0.5;exitDx=0;exitDy=0;entryX=0;entryY=0.5;entryDx=0;entryDy=0;" edge="1" parent="1" source="gFtiI1naevWEGt4AvRQX-10" target="gFtiI1naevWEGt4AvRQX-7">
          <mxGeometry width="160" relative="1" as="geometry">
            <mxPoint x="630" y="600" as="sourcePoint" />
            <mxPoint x="790" y="600" as="targetPoint" />
          </mxGeometry>
        </mxCell>
        <mxCell id="gFtiI1naevWEGt4AvRQX-19" value="&amp;lt;&amp;lt;include&amp;gt;&amp;gt;" style="endArrow=open;endSize=12;dashed=1;html=1;rounded=0;entryX=0;entryY=0.5;entryDx=0;entryDy=0;" edge="1" parent="1" target="gFtiI1naevWEGt4AvRQX-9">
          <mxGeometry width="160" relative="1" as="geometry">
            <mxPoint x="560" y="720" as="sourcePoint" />
            <mxPoint x="650" y="490" as="targetPoint" />
          </mxGeometry>
        </mxCell>
        <mxCell id="gFtiI1naevWEGt4AvRQX-20" value="&amp;lt;&amp;lt;include&amp;gt;&amp;gt;" style="endArrow=open;endSize=12;dashed=1;html=1;rounded=0;entryX=0;entryY=0.5;entryDx=0;entryDy=0;" edge="1" parent="1" target="gFtiI1naevWEGt4AvRQX-5">
          <mxGeometry width="160" relative="1" as="geometry">
            <mxPoint x="560" y="720" as="sourcePoint" />
            <mxPoint x="650" y="610" as="targetPoint" />
          </mxGeometry>
        </mxCell>
        <mxCell id="gFtiI1naevWEGt4AvRQX-21" value="&amp;lt;&amp;lt;include&amp;gt;&amp;gt;" style="endArrow=open;endSize=12;dashed=1;html=1;rounded=0;entryX=0;entryY=0.5;entryDx=0;entryDy=0;" edge="1" parent="1" target="gFtiI1naevWEGt4AvRQX-6">
          <mxGeometry width="160" relative="1" as="geometry">
            <mxPoint x="560" y="720" as="sourcePoint" />
            <mxPoint x="650" y="610" as="targetPoint" />
          </mxGeometry>
        </mxCell>
        <mxCell id="gFtiI1naevWEGt4AvRQX-22" value="&amp;lt;&amp;lt;extend&amp;gt;&amp;gt;" style="endArrow=open;endSize=12;dashed=1;html=1;rounded=0;entryX=1;entryY=0.5;entryDx=0;entryDy=0;exitX=0;exitY=0.5;exitDx=0;exitDy=0;" edge="1" parent="1" source="gFtiI1naevWEGt4AvRQX-3" target="gFtiI1naevWEGt4AvRQX-2">
          <mxGeometry width="160" relative="1" as="geometry">
            <mxPoint x="570" y="730" as="sourcePoint" />
            <mxPoint x="650" y="730" as="targetPoint" />
          </mxGeometry>
        </mxCell>
        <mxCell id="gFtiI1naevWEGt4AvRQX-23" value="&amp;lt;&amp;lt;include&amp;gt;&amp;gt;" style="endArrow=open;endSize=12;dashed=1;html=1;rounded=0;entryX=0.5;entryY=0;entryDx=0;entryDy=0;exitX=0.5;exitY=1;exitDx=0;exitDy=0;" edge="1" parent="1" source="gFtiI1naevWEGt4AvRQX-10" target="gFtiI1naevWEGt4AvRQX-11">
          <mxGeometry width="160" relative="1" as="geometry">
            <mxPoint x="570" y="730" as="sourcePoint" />
            <mxPoint x="650" y="730" as="targetPoint" />
          </mxGeometry>
        </mxCell>
        <mxCell id="gFtiI1naevWEGt4AvRQX-24" value="&amp;lt;&amp;lt;include&amp;gt;&amp;gt;" style="endArrow=open;endSize=12;dashed=1;html=1;rounded=0;entryX=0;entryY=0.5;entryDx=0;entryDy=0;exitX=1;exitY=0.5;exitDx=0;exitDy=0;" edge="1" parent="1" source="gFtiI1naevWEGt4AvRQX-11" target="gFtiI1naevWEGt4AvRQX-8">
          <mxGeometry width="160" relative="1" as="geometry">
            <mxPoint x="510" y="770" as="sourcePoint" />
            <mxPoint x="510" y="850" as="targetPoint" />
          </mxGeometry>
        </mxCell>
        <mxCell id="gFtiI1naevWEGt4AvRQX-25" value="&amp;lt;&amp;lt;include&amp;gt;&amp;gt;" style="endArrow=open;endSize=12;dashed=1;html=1;rounded=0;entryX=0;entryY=1;entryDx=0;entryDy=0;" edge="1" parent="1" target="gFtiI1naevWEGt4AvRQX-9">
          <mxGeometry width="160" relative="1" as="geometry">
            <mxPoint x="560" y="880" as="sourcePoint" />
            <mxPoint x="640" y="600" as="targetPoint" />
          </mxGeometry>
        </mxCell>
        <mxCell id="gFtiI1naevWEGt4AvRQX-26" value="&amp;lt;&amp;lt;include&amp;gt;&amp;gt;" style="endArrow=open;endSize=12;dashed=1;html=1;rounded=0;entryX=0;entryY=1;entryDx=0;entryDy=0;" edge="1" parent="1" target="gFtiI1naevWEGt4AvRQX-7">
          <mxGeometry width="160" relative="1" as="geometry">
            <mxPoint x="560" y="880" as="sourcePoint" />
            <mxPoint x="650" y="890" as="targetPoint" />
          </mxGeometry>
        </mxCell>
        <mxCell id="gFtiI1naevWEGt4AvRQX-30" value="&amp;lt;&amp;lt;extend&amp;gt;&amp;gt;" style="endArrow=open;endSize=12;dashed=1;html=1;rounded=0;entryX=1;entryY=0.5;entryDx=0;entryDy=0;exitX=0;exitY=0.5;exitDx=0;exitDy=0;" edge="1" parent="1" source="gFtiI1naevWEGt4AvRQX-5" target="gFtiI1naevWEGt4AvRQX-4">
          <mxGeometry width="160" relative="1" as="geometry">
            <mxPoint x="650" y="250" as="sourcePoint" />
            <mxPoint x="570" y="250" as="targetPoint" />
          </mxGeometry>
        </mxCell>
        <mxCell id="gFtiI1naevWEGt4AvRQX-31" value="&amp;lt;&amp;lt;extend&amp;gt;&amp;gt;" style="endArrow=open;endSize=12;dashed=1;html=1;rounded=0;" edge="1" parent="1">
          <mxGeometry width="160" relative="1" as="geometry">
            <mxPoint x="640" y="480" as="sourcePoint" />
            <mxPoint x="560" y="360" as="targetPoint" />
          </mxGeometry>
        </mxCell>
        <mxCell id="gFtiI1naevWEGt4AvRQX-32" value="&amp;lt;&amp;lt;extend&amp;gt;&amp;gt;" style="endArrow=open;endSize=12;dashed=1;html=1;rounded=0;entryX=1;entryY=0.5;entryDx=0;entryDy=0;" edge="1" parent="1" target="gFtiI1naevWEGt4AvRQX-4">
          <mxGeometry width="160" relative="1" as="geometry">
            <mxPoint x="640" y="600" as="sourcePoint" />
            <mxPoint x="570" y="370" as="targetPoint" />
          </mxGeometry>
        </mxCell>
        <mxCell id="gFtiI1naevWEGt4AvRQX-33" value="&amp;lt;&amp;lt;extend&amp;gt;&amp;gt;" style="endArrow=open;endSize=12;dashed=1;html=1;rounded=0;exitX=0;exitY=0.5;exitDx=0;exitDy=0;" edge="1" parent="1" source="gFtiI1naevWEGt4AvRQX-12">
          <mxGeometry width="160" relative="1" as="geometry">
            <mxPoint x="650" y="250" as="sourcePoint" />
            <mxPoint x="560" y="240" as="targetPoint" />
          </mxGeometry>
        </mxCell>
        <mxCell id="gFtiI1naevWEGt4AvRQX-36" value="" style="endArrow=none;html=1;rounded=0;entryX=0;entryY=0.5;entryDx=0;entryDy=0;" edge="1" parent="1" target="gFtiI1naevWEGt4AvRQX-4">
          <mxGeometry width="50" height="50" relative="1" as="geometry">
            <mxPoint x="280" y="400" as="sourcePoint" />
            <mxPoint x="730" y="400" as="targetPoint" />
          </mxGeometry>
        </mxCell>
        <mxCell id="gFtiI1naevWEGt4AvRQX-37" value="" style="endArrow=none;html=1;rounded=0;entryX=0;entryY=0.5;entryDx=0;entryDy=0;" edge="1" parent="1" target="gFtiI1naevWEGt4AvRQX-2">
          <mxGeometry width="50" height="50" relative="1" as="geometry">
            <mxPoint x="280" y="400" as="sourcePoint" />
            <mxPoint x="450" y="370" as="targetPoint" />
          </mxGeometry>
        </mxCell>
        <mxCell id="gFtiI1naevWEGt4AvRQX-38" value="" style="endArrow=none;html=1;rounded=0;entryX=0;entryY=0.5;entryDx=0;entryDy=0;" edge="1" parent="1" target="gFtiI1naevWEGt4AvRQX-10">
          <mxGeometry width="50" height="50" relative="1" as="geometry">
            <mxPoint x="280" y="400" as="sourcePoint" />
            <mxPoint x="430" y="620" as="targetPoint" />
          </mxGeometry>
        </mxCell>
        <mxCell id="gFtiI1naevWEGt4AvRQX-40" value="&amp;lt;&amp;lt;include&amp;gt;&amp;gt;" style="endArrow=open;endSize=12;dashed=1;html=1;rounded=0;exitX=0.5;exitY=1;exitDx=0;exitDy=0;edgeStyle=orthogonalEdgeStyle;entryX=0;entryY=0.5;entryDx=0;entryDy=0;" edge="1" parent="1" source="gFtiI1naevWEGt4AvRQX-11" target="gFtiI1naevWEGt4AvRQX-41">
          <mxGeometry width="160" relative="1" as="geometry">
            <mxPoint x="510" y="770" as="sourcePoint" />
            <mxPoint x="880" y="690" as="targetPoint" />
            <Array as="points">
              <mxPoint x="500" y="1070" />
              <mxPoint x="780" y="1070" />
              <mxPoint x="780" y="880" />
            </Array>
          </mxGeometry>
        </mxCell>
        <mxCell id="gFtiI1naevWEGt4AvRQX-41" value="Quản lý thanh toán" style="ellipse;whiteSpace=wrap;html=1;" vertex="1" parent="1">
          <mxGeometry x="820" y="840" width="120" height="80" as="geometry" />
        </mxCell>
        <mxCell id="gFtiI1naevWEGt4AvRQX-43" value="Quản lý tài khoản" style="ellipse;whiteSpace=wrap;html=1;" vertex="1" parent="1">
          <mxGeometry x="820" y="680" width="120" height="80" as="geometry" />
        </mxCell>
        <mxCell id="gFtiI1naevWEGt4AvRQX-44" value="&amp;lt;&amp;lt;include&amp;gt;&amp;gt;" style="endArrow=open;endSize=12;dashed=1;html=1;rounded=0;entryX=0;entryY=0.5;entryDx=0;entryDy=0;exitX=1;exitY=0.5;exitDx=0;exitDy=0;" edge="1" parent="1" source="gFtiI1naevWEGt4AvRQX-6" target="gFtiI1naevWEGt4AvRQX-43">
          <mxGeometry width="160" relative="1" as="geometry">
            <mxPoint x="570" y="890" as="sourcePoint" />
            <mxPoint x="650" y="890" as="targetPoint" />
          </mxGeometry>
        </mxCell>
        <mxCell id="gFtiI1naevWEGt4AvRQX-45" value="Quản lý sản phẩm" style="ellipse;whiteSpace=wrap;html=1;" vertex="1" parent="1">
          <mxGeometry x="840" y="440" width="120" height="80" as="geometry" />
        </mxCell>
        <mxCell id="gFtiI1naevWEGt4AvRQX-46" value="&amp;lt;&amp;lt;include&amp;gt;&amp;gt;" style="endArrow=open;endSize=12;dashed=1;html=1;rounded=0;entryX=0;entryY=0.5;entryDx=0;entryDy=0;exitX=1;exitY=0.5;exitDx=0;exitDy=0;" edge="1" parent="1" source="gFtiI1naevWEGt4AvRQX-9" target="gFtiI1naevWEGt4AvRQX-45">
          <mxGeometry width="160" relative="1" as="geometry">
            <mxPoint x="770" y="730" as="sourcePoint" />
            <mxPoint x="830" y="730" as="targetPoint" />
          </mxGeometry>
        </mxCell>
        <mxCell id="gFtiI1naevWEGt4AvRQX-47" value="&amp;lt;&amp;lt;include&amp;gt;&amp;gt;" style="endArrow=open;endSize=12;dashed=1;html=1;rounded=0;exitX=1;exitY=0.5;exitDx=0;exitDy=0;" edge="1" parent="1" source="gFtiI1naevWEGt4AvRQX-7">
          <mxGeometry width="160" relative="1" as="geometry">
            <mxPoint x="770" y="610" as="sourcePoint" />
            <mxPoint x="840" y="480" as="targetPoint" />
          </mxGeometry>
        </mxCell>
        <mxCell id="gFtiI1naevWEGt4AvRQX-48" value="&amp;lt;&amp;lt;include&amp;gt;&amp;gt;" style="endArrow=open;endSize=12;dashed=1;html=1;rounded=0;exitX=1;exitY=0.5;exitDx=0;exitDy=0;" edge="1" parent="1" source="gFtiI1naevWEGt4AvRQX-5">
          <mxGeometry width="160" relative="1" as="geometry">
            <mxPoint x="770" y="490" as="sourcePoint" />
            <mxPoint x="840" y="480" as="targetPoint" />
          </mxGeometry>
        </mxCell>
        <mxCell id="gFtiI1naevWEGt4AvRQX-52" value="Đăng nhập" style="ellipse;whiteSpace=wrap;html=1;" vertex="1" parent="1">
          <mxGeometry x="1000" y="600" width="120" height="80" as="geometry" />
        </mxCell>
        <mxCell id="gFtiI1naevWEGt4AvRQX-53" value="" style="endArrow=none;html=1;rounded=0;exitX=1;exitY=0.5;exitDx=0;exitDy=0;" edge="1" parent="1" source="gFtiI1naevWEGt4AvRQX-52">
          <mxGeometry width="50" height="50" relative="1" as="geometry">
            <mxPoint x="290" y="410" as="sourcePoint" />
            <mxPoint x="1160" y="640" as="targetPoint" />
          </mxGeometry>
        </mxCell>
        <mxCell id="gFtiI1naevWEGt4AvRQX-54" value="&amp;lt;&amp;lt;include&amp;gt;&amp;gt;" style="endArrow=open;endSize=12;dashed=1;html=1;rounded=0;entryX=1;entryY=0.5;entryDx=0;entryDy=0;exitX=0;exitY=0.5;exitDx=0;exitDy=0;" edge="1" parent="1" source="gFtiI1naevWEGt4AvRQX-52" target="gFtiI1naevWEGt4AvRQX-43">
          <mxGeometry width="160" relative="1" as="geometry">
            <mxPoint x="510" y="770" as="sourcePoint" />
            <mxPoint x="510" y="850" as="targetPoint" />
          </mxGeometry>
        </mxCell>
        <mxCell id="gFtiI1naevWEGt4AvRQX-55" value="&amp;lt;&amp;lt;include&amp;gt;&amp;gt;" style="endArrow=open;endSize=12;dashed=1;html=1;rounded=0;entryX=0.5;entryY=1;entryDx=0;entryDy=0;exitX=0;exitY=0.5;exitDx=0;exitDy=0;" edge="1" parent="1" source="gFtiI1naevWEGt4AvRQX-52" target="gFtiI1naevWEGt4AvRQX-45">
          <mxGeometry width="160" relative="1" as="geometry">
            <mxPoint x="1010" y="650" as="sourcePoint" />
            <mxPoint x="950" y="730" as="targetPoint" />
          </mxGeometry>
        </mxCell>
        <mxCell id="gFtiI1naevWEGt4AvRQX-56" value="&amp;lt;&amp;lt;include&amp;gt;&amp;gt;" style="endArrow=open;endSize=12;dashed=1;html=1;rounded=0;entryX=0.45;entryY=0.035;entryDx=0;entryDy=0;exitX=0.5;exitY=1;exitDx=0;exitDy=0;entryPerimeter=0;edgeStyle=orthogonalEdgeStyle;" edge="1" parent="1" source="gFtiI1naevWEGt4AvRQX-52" target="gFtiI1naevWEGt4AvRQX-41">
          <mxGeometry width="160" relative="1" as="geometry">
            <mxPoint x="1010" y="650" as="sourcePoint" />
            <mxPoint x="950" y="730" as="targetPoint" />
            <Array as="points">
              <mxPoint x="1060" y="800" />
              <mxPoint x="874" y="800" />
            </Array>
          </mxGeometry>
        </mxCell>
        <mxCell id="OE0onbCFAtta_hN9VB7Q-1" value="Vận chuyển" style="ellipse;whiteSpace=wrap;html=1;" vertex="1" parent="1">
          <mxGeometry x="640" y="950" width="120" height="80" as="geometry" />
        </mxCell>
        <mxCell id="OE0onbCFAtta_hN9VB7Q-2" value="&amp;lt;&amp;lt;include&amp;gt;&amp;gt;" style="endArrow=open;endSize=12;dashed=1;html=1;rounded=0;entryX=0;entryY=0.5;entryDx=0;entryDy=0;" edge="1" parent="1" target="OE0onbCFAtta_hN9VB7Q-1">
          <mxGeometry width="160" relative="1" as="geometry">
            <mxPoint x="560" y="880" as="sourcePoint" />
            <mxPoint x="650" y="890" as="targetPoint" />
          </mxGeometry>
        </mxCell>
        <mxCell id="OE0onbCFAtta_hN9VB7Q-3" value="Quản lý vận chuyển" style="ellipse;whiteSpace=wrap;html=1;" vertex="1" parent="1">
          <mxGeometry x="820" y="950" width="120" height="80" as="geometry" />
        </mxCell>
        <mxCell id="OE0onbCFAtta_hN9VB7Q-4" value="&amp;lt;&amp;lt;include&amp;gt;&amp;gt;" style="endArrow=open;endSize=12;dashed=1;html=1;rounded=0;entryX=0;entryY=0.5;entryDx=0;entryDy=0;exitX=1;exitY=0.5;exitDx=0;exitDy=0;" edge="1" parent="1" source="OE0onbCFAtta_hN9VB7Q-1" target="OE0onbCFAtta_hN9VB7Q-3">
          <mxGeometry width="160" relative="1" as="geometry">
            <mxPoint x="570" y="890" as="sourcePoint" />
            <mxPoint x="650" y="1000" as="targetPoint" />
          </mxGeometry>
        </mxCell>
        <mxCell id="OE0onbCFAtta_hN9VB7Q-5" value="&amp;lt;&amp;lt;include&amp;gt;&amp;gt;" style="endArrow=open;endSize=12;dashed=1;html=1;rounded=0;entryX=1;entryY=0.5;entryDx=0;entryDy=0;edgeStyle=orthogonalEdgeStyle;" edge="1" parent="1" target="OE0onbCFAtta_hN9VB7Q-3">
          <mxGeometry width="160" relative="1" as="geometry">
            <mxPoint x="1060" y="680" as="sourcePoint" />
            <mxPoint x="884" y="853" as="targetPoint" />
            <Array as="points">
              <mxPoint x="1060" y="990" />
            </Array>
          </mxGeometry>
        </mxCell>
        <mxCell id="4q-leU4EUcPkwmmwZO4o-1" value="Đặt hàng" style="ellipse;whiteSpace=wrap;html=1;" vertex="1" parent="1">
          <mxGeometry x="440" y="440" width="120" height="80" as="geometry" />
        </mxCell>
        <mxCell id="4q-leU4EUcPkwmmwZO4o-2" value="Sửa" style="ellipse;whiteSpace=wrap;html=1;" vertex="1" parent="1">
          <mxGeometry x="840" y="220" width="120" height="80" as="geometry" />
        </mxCell>
        <mxCell id="4q-leU4EUcPkwmmwZO4o-3" value="Xóa" style="ellipse;whiteSpace=wrap;html=1;" vertex="1" parent="1">
          <mxGeometry x="840" y="300" width="120" height="80" as="geometry" />
        </mxCell>
        <mxCell id="4q-leU4EUcPkwmmwZO4o-4" value="Thêm" style="ellipse;whiteSpace=wrap;html=1;" vertex="1" parent="1">
          <mxGeometry x="840" y="140" width="120" height="80" as="geometry" />
        </mxCell>
        <mxCell id="f36Ccw9tZcl-uSsQ3pjD-1" value="Khuyến mại" style="ellipse;whiteSpace=wrap;html=1;" vertex="1" parent="1">
          <mxGeometry x="640" y="230" width="120" height="80" as="geometry" />
        </mxCell>
      </root>
    </mxGraphModel>
  </diagram>
  <diagram id="6Q9hsVDghlpittZsii1V" name="ClassDiagram">
    <mxGraphModel dx="2600" dy="764" grid="1" gridSize="10" guides="1" tooltips="1" connect="1" arrows="1" fold="1" page="1" pageScale="1" pageWidth="1169" pageHeight="827" math="0" shadow="0">
      <root>
        <mxCell id="0" />
        <mxCell id="1" parent="0" />
        <mxCell id="6qk1nTE2CJ-R7R3aB_jm-1" value="&lt;p style=&quot;margin:0px;margin-top:4px;text-align:center;&quot;&gt;&lt;b&gt;Tài khoản&lt;/b&gt;&lt;/p&gt;&lt;hr size=&quot;1&quot; style=&quot;border-style:solid;&quot;&gt;&lt;p style=&quot;margin: 0px 0px 0px 4px;&quot;&gt;&lt;br&gt;&lt;/p&gt;&lt;hr size=&quot;1&quot; style=&quot;border-style:solid;&quot;&gt;&lt;p style=&quot;margin:0px;margin-left:4px;&quot;&gt;&lt;br&gt;&lt;/p&gt;" style="verticalAlign=top;align=left;overflow=fill;html=1;whiteSpace=wrap;" vertex="1" parent="1">
          <mxGeometry x="680" y="120" width="160" height="200" as="geometry" />
        </mxCell>
        <mxCell id="QpZHjU9Zmi9y3y4YT2Zv-1" value="&lt;p style=&quot;margin:0px;margin-top:4px;text-align:center;&quot;&gt;&lt;b&gt;Sản phẩm&lt;/b&gt;&lt;/p&gt;&lt;hr size=&quot;1&quot; style=&quot;border-style:solid;&quot;&gt;&lt;p style=&quot;margin: 0px 0px 0px 4px;&quot;&gt;&lt;br&gt;&lt;/p&gt;&lt;hr size=&quot;1&quot; style=&quot;border-style:solid;&quot;&gt;&lt;p style=&quot;margin:0px;margin-left:4px;&quot;&gt;&lt;br&gt;&lt;/p&gt;" style="verticalAlign=top;align=left;overflow=fill;html=1;whiteSpace=wrap;" vertex="1" parent="1">
          <mxGeometry x="80" y="120" width="160" height="200" as="geometry" />
        </mxCell>
        <mxCell id="QpZHjU9Zmi9y3y4YT2Zv-2" value="&lt;p style=&quot;margin:0px;margin-top:4px;text-align:center;&quot;&gt;&lt;b&gt;Quản trị&lt;/b&gt;&lt;/p&gt;&lt;hr size=&quot;1&quot; style=&quot;border-style:solid;&quot;&gt;&lt;p style=&quot;margin: 0px 0px 0px 4px;&quot;&gt;&lt;br&gt;&lt;/p&gt;&lt;hr size=&quot;1&quot; style=&quot;border-style:solid;&quot;&gt;&lt;p style=&quot;margin:0px;margin-left:4px;&quot;&gt;&lt;br&gt;&lt;/p&gt;" style="verticalAlign=top;align=left;overflow=fill;html=1;whiteSpace=wrap;" vertex="1" parent="1">
          <mxGeometry x="960" y="120" width="160" height="200" as="geometry" />
        </mxCell>
        <mxCell id="TByZTJzUyF5VJzCFP4G9-1" value="&lt;p style=&quot;margin:0px;margin-top:4px;text-align:center;&quot;&gt;&lt;b&gt;Chi tiết sản phẩm&lt;/b&gt;&lt;/p&gt;&lt;hr size=&quot;1&quot; style=&quot;border-style:solid;&quot;&gt;&lt;p style=&quot;margin: 0px 0px 0px 4px;&quot;&gt;&lt;br&gt;&lt;/p&gt;&lt;hr size=&quot;1&quot; style=&quot;border-style:solid;&quot;&gt;&lt;p style=&quot;margin:0px;margin-left:4px;&quot;&gt;&lt;br&gt;&lt;/p&gt;" style="verticalAlign=top;align=left;overflow=fill;html=1;whiteSpace=wrap;" vertex="1" parent="1">
          <mxGeometry x="80" y="360" width="160" height="200" as="geometry" />
        </mxCell>
        <mxCell id="xlgVzFCh_zYz7Z2xRm8b-1" value="&lt;p style=&quot;margin:0px;margin-top:4px;text-align:center;&quot;&gt;&lt;b&gt;Thanh toán&lt;/b&gt;&lt;/p&gt;&lt;hr size=&quot;1&quot; style=&quot;border-style:solid;&quot;&gt;&lt;p style=&quot;margin: 0px 0px 0px 4px;&quot;&gt;&lt;br&gt;&lt;/p&gt;&lt;hr size=&quot;1&quot; style=&quot;border-style:solid;&quot;&gt;&lt;p style=&quot;margin:0px;margin-left:4px;&quot;&gt;&lt;br&gt;&lt;/p&gt;" style="verticalAlign=top;align=left;overflow=fill;html=1;whiteSpace=wrap;" vertex="1" parent="1">
          <mxGeometry x="680" y="640" width="160" height="200" as="geometry" />
        </mxCell>
        <mxCell id="xlgVzFCh_zYz7Z2xRm8b-2" value="&lt;p style=&quot;margin:0px;margin-top:4px;text-align:center;&quot;&gt;&lt;b&gt;Đơn hàng&lt;/b&gt;&lt;/p&gt;&lt;hr size=&quot;1&quot; style=&quot;border-style:solid;&quot;&gt;&lt;p style=&quot;margin: 0px 0px 0px 4px;&quot;&gt;&lt;br&gt;&lt;/p&gt;&lt;hr size=&quot;1&quot; style=&quot;border-style:solid;&quot;&gt;&lt;p style=&quot;margin:0px;margin-left:4px;&quot;&gt;&lt;br&gt;&lt;/p&gt;" style="verticalAlign=top;align=left;overflow=fill;html=1;whiteSpace=wrap;" vertex="1" parent="1">
          <mxGeometry x="80" y="640" width="160" height="200" as="geometry" />
        </mxCell>
        <mxCell id="xlgVzFCh_zYz7Z2xRm8b-3" value="&lt;p style=&quot;margin:0px;margin-top:4px;text-align:center;&quot;&gt;&lt;b&gt;Chi tiết đơn hàng&lt;/b&gt;&lt;/p&gt;&lt;hr size=&quot;1&quot; style=&quot;border-style:solid;&quot;&gt;&lt;p style=&quot;margin: 0px 0px 0px 4px;&quot;&gt;&lt;br&gt;&lt;/p&gt;&lt;hr size=&quot;1&quot; style=&quot;border-style:solid;&quot;&gt;&lt;p style=&quot;margin:0px;margin-left:4px;&quot;&gt;&lt;br&gt;&lt;/p&gt;" style="verticalAlign=top;align=left;overflow=fill;html=1;whiteSpace=wrap;" vertex="1" parent="1">
          <mxGeometry x="80" y="920" width="160" height="200" as="geometry" />
        </mxCell>
        <mxCell id="xlgVzFCh_zYz7Z2xRm8b-4" value="&lt;p style=&quot;margin:0px;margin-top:4px;text-align:center;&quot;&gt;&lt;b&gt;Khách hàng&lt;/b&gt;&lt;/p&gt;&lt;hr size=&quot;1&quot; style=&quot;border-style:solid;&quot;&gt;&lt;p style=&quot;margin: 0px 0px 0px 4px;&quot;&gt;&lt;br&gt;&lt;/p&gt;&lt;hr size=&quot;1&quot; style=&quot;border-style:solid;&quot;&gt;&lt;p style=&quot;margin:0px;margin-left:4px;&quot;&gt;&lt;br&gt;&lt;/p&gt;" style="verticalAlign=top;align=left;overflow=fill;html=1;whiteSpace=wrap;" vertex="1" parent="1">
          <mxGeometry x="-200" y="120" width="160" height="200" as="geometry" />
        </mxCell>
        <mxCell id="nIFrkIDZjfeaZmS2JUST-1" value="&lt;p style=&quot;margin:0px;margin-top:4px;text-align:center;&quot;&gt;&lt;b&gt;Giỏ hàng&lt;/b&gt;&lt;/p&gt;&lt;hr size=&quot;1&quot; style=&quot;border-style:solid;&quot;&gt;&lt;p style=&quot;margin: 0px 0px 0px 4px;&quot;&gt;&lt;br&gt;&lt;/p&gt;&lt;hr size=&quot;1&quot; style=&quot;border-style:solid;&quot;&gt;&lt;p style=&quot;margin:0px;margin-left:4px;&quot;&gt;&lt;br&gt;&lt;/p&gt;" style="verticalAlign=top;align=left;overflow=fill;html=1;whiteSpace=wrap;" vertex="1" parent="1">
          <mxGeometry x="360" y="640" width="160" height="200" as="geometry" />
        </mxCell>
        <mxCell id="nIFrkIDZjfeaZmS2JUST-2" value="&lt;p style=&quot;margin:0px;margin-top:4px;text-align:center;&quot;&gt;&lt;b&gt;Trạng thái thanh toán&lt;/b&gt;&lt;/p&gt;&lt;hr size=&quot;1&quot; style=&quot;border-style:solid;&quot;&gt;&lt;p style=&quot;margin: 0px 0px 0px 4px;&quot;&gt;&lt;br&gt;&lt;/p&gt;&lt;hr size=&quot;1&quot; style=&quot;border-style:solid;&quot;&gt;&lt;p style=&quot;margin:0px;margin-left:4px;&quot;&gt;&lt;br&gt;&lt;/p&gt;" style="verticalAlign=top;align=left;overflow=fill;html=1;whiteSpace=wrap;" vertex="1" parent="1">
          <mxGeometry x="960" y="640" width="160" height="200" as="geometry" />
        </mxCell>
      </root>
    </mxGraphModel>
  </diagram>
  <diagram id="O2gg0G1oC2tviW2_EeNR" name="State_uml_Quản lý người dùng">
    <mxGraphModel dx="942" dy="1707" grid="1" gridSize="10" guides="1" tooltips="1" connect="1" arrows="1" fold="1" page="1" pageScale="1" pageWidth="850" pageHeight="1100" math="0" shadow="0">
      <root>
        <mxCell id="0" />
        <mxCell id="1" parent="0" />
        <mxCell id="esDBGZHsVuxOd4-5CmN2-1" value="" style="ellipse;html=1;shape=endState;fillColor=#000000;strokeColor=#ff0000;fontSize=20;" parent="1" vertex="1">
          <mxGeometry x="1060" y="420" width="30" height="30" as="geometry" />
        </mxCell>
        <mxCell id="UDUuyRHDEic25tg1yxT7-1" value="" style="ellipse;shape=startState;fillColor=#000000;strokeColor=#ff0000;fontSize=20;" parent="1" vertex="1">
          <mxGeometry x="240" y="155" width="30" height="30" as="geometry" />
        </mxCell>
        <mxCell id="UDUuyRHDEic25tg1yxT7-2" value="Chưa đăng nhập" style="rounded=1;whiteSpace=wrap;html=1;fontSize=20;" parent="1" vertex="1">
          <mxGeometry x="320" y="325" width="120" height="60" as="geometry" />
        </mxCell>
        <mxCell id="UDUuyRHDEic25tg1yxT7-3" value="Đăng nhập" style="rounded=1;whiteSpace=wrap;html=1;fontSize=20;" parent="1" vertex="1">
          <mxGeometry x="320" y="140" width="120" height="60" as="geometry" />
        </mxCell>
        <mxCell id="UDUuyRHDEic25tg1yxT7-4" value="Giao diện quản lý admin" style="rounded=1;whiteSpace=wrap;html=1;fontSize=20;" parent="1" vertex="1">
          <mxGeometry x="870" y="-30" width="130" height="70" as="geometry" />
        </mxCell>
        <mxCell id="UDUuyRHDEic25tg1yxT7-5" value="Giao diện giáo viên" style="rounded=1;whiteSpace=wrap;html=1;fontSize=20;" parent="1" vertex="1">
          <mxGeometry x="910" y="140" width="120" height="60" as="geometry" />
        </mxCell>
        <mxCell id="UDUuyRHDEic25tg1yxT7-6" value="Giao diện kế toán" style="rounded=1;whiteSpace=wrap;html=1;fontSize=20;" parent="1" vertex="1">
          <mxGeometry x="890" y="315" width="120" height="60" as="geometry" />
        </mxCell>
        <mxCell id="UDUuyRHDEic25tg1yxT7-7" value="Từ chối truy cập" style="rounded=1;whiteSpace=wrap;html=1;fontSize=20;" parent="1" vertex="1">
          <mxGeometry x="320" y="-180" width="120" height="60" as="geometry" />
        </mxCell>
        <mxCell id="UDUuyRHDEic25tg1yxT7-8" value="Trở về trạng thái trước đó" style="text;html=1;align=center;verticalAlign=middle;resizable=0;points=[];autosize=1;strokeColor=none;fillColor=none;rotation=-90;fontSize=20;" parent="1" vertex="1">
          <mxGeometry x="240" y="-10" width="250" height="40" as="geometry" />
        </mxCell>
        <mxCell id="UDUuyRHDEic25tg1yxT7-9" value="Vai trò được xác định" style="rounded=1;whiteSpace=wrap;html=1;fontSize=20;" parent="1" vertex="1">
          <mxGeometry x="595" y="140" width="120" height="60" as="geometry" />
        </mxCell>
        <mxCell id="UDUuyRHDEic25tg1yxT7-10" value="Xác định vai trò" style="text;html=1;align=center;verticalAlign=middle;resizable=0;points=[];autosize=1;strokeColor=none;fillColor=none;fontSize=20;" parent="1" vertex="1">
          <mxGeometry x="440" y="135" width="160" height="40" as="geometry" />
        </mxCell>
        <mxCell id="UDUuyRHDEic25tg1yxT7-11" value="Vai trò = admin" style="text;html=1;align=center;verticalAlign=middle;resizable=0;points=[];autosize=1;strokeColor=none;fillColor=none;rotation=-45;fontSize=20;" parent="1" vertex="1">
          <mxGeometry x="690" y="60" width="160" height="40" as="geometry" />
        </mxCell>
        <mxCell id="UDUuyRHDEic25tg1yxT7-12" value="Vai trò = giáo viên" style="text;html=1;align=center;verticalAlign=middle;resizable=0;points=[];autosize=1;strokeColor=none;fillColor=none;fontSize=20;" parent="1" vertex="1">
          <mxGeometry x="730" y="135" width="180" height="40" as="geometry" />
        </mxCell>
        <mxCell id="UDUuyRHDEic25tg1yxT7-13" value="Vai trò = kế toán" style="text;html=1;align=center;verticalAlign=middle;resizable=0;points=[];autosize=1;strokeColor=none;fillColor=none;rotation=45;fontSize=20;" parent="1" vertex="1">
          <mxGeometry x="730" y="235" width="170" height="40" as="geometry" />
        </mxCell>
        <mxCell id="UDUuyRHDEic25tg1yxT7-14" value="Đăng xuất ()" style="text;html=1;align=center;verticalAlign=middle;resizable=0;points=[];autosize=1;strokeColor=none;fillColor=none;rotation=-90;fontSize=20;" parent="1" vertex="1">
          <mxGeometry x="300" y="240" width="130" height="40" as="geometry" />
        </mxCell>
        <mxCell id="UDUuyRHDEic25tg1yxT7-15" value="Giao diện mặc định" style="rounded=1;whiteSpace=wrap;html=1;fontSize=20;" parent="1" vertex="1">
          <mxGeometry x="620" y="325" width="120" height="60" as="geometry" />
        </mxCell>
        <mxCell id="UDUuyRHDEic25tg1yxT7-16" value="" style="endArrow=classic;html=1;rounded=0;exitX=1;exitY=0.5;exitDx=0;exitDy=0;entryX=0;entryY=0.5;entryDx=0;entryDy=0;fontSize=20;" parent="1" source="UDUuyRHDEic25tg1yxT7-3" target="UDUuyRHDEic25tg1yxT7-9" edge="1">
          <mxGeometry width="50" height="50" relative="1" as="geometry">
            <mxPoint x="560" y="240" as="sourcePoint" />
            <mxPoint x="610" y="190" as="targetPoint" />
          </mxGeometry>
        </mxCell>
        <mxCell id="UDUuyRHDEic25tg1yxT7-17" value="" style="endArrow=classic;html=1;rounded=0;exitX=1;exitY=0.5;exitDx=0;exitDy=0;entryX=0;entryY=0.5;entryDx=0;entryDy=0;fontSize=20;" parent="1" source="UDUuyRHDEic25tg1yxT7-9" target="UDUuyRHDEic25tg1yxT7-5" edge="1">
          <mxGeometry width="50" height="50" relative="1" as="geometry">
            <mxPoint x="560" y="240" as="sourcePoint" />
            <mxPoint x="610" y="190" as="targetPoint" />
          </mxGeometry>
        </mxCell>
        <mxCell id="UDUuyRHDEic25tg1yxT7-18" value="" style="endArrow=classic;html=1;rounded=0;entryX=0;entryY=0.5;entryDx=0;entryDy=0;exitX=1;exitY=0.5;exitDx=0;exitDy=0;fontSize=20;" parent="1" source="UDUuyRHDEic25tg1yxT7-9" target="UDUuyRHDEic25tg1yxT7-6" edge="1">
          <mxGeometry width="50" height="50" relative="1" as="geometry">
            <mxPoint x="680" y="170" as="sourcePoint" />
            <mxPoint x="610" y="190" as="targetPoint" />
          </mxGeometry>
        </mxCell>
        <mxCell id="UDUuyRHDEic25tg1yxT7-20" value="" style="endArrow=classic;html=1;rounded=0;entryX=0;entryY=0.5;entryDx=0;entryDy=0;exitX=1;exitY=0.5;exitDx=0;exitDy=0;fontSize=20;" parent="1" source="UDUuyRHDEic25tg1yxT7-9" target="UDUuyRHDEic25tg1yxT7-4" edge="1">
          <mxGeometry width="50" height="50" relative="1" as="geometry">
            <mxPoint x="680" y="170" as="sourcePoint" />
            <mxPoint x="610" y="190" as="targetPoint" />
          </mxGeometry>
        </mxCell>
        <mxCell id="UDUuyRHDEic25tg1yxT7-21" value="" style="endArrow=classic;html=1;rounded=0;entryX=0.5;entryY=0;entryDx=0;entryDy=0;fontSize=20;" parent="1" target="UDUuyRHDEic25tg1yxT7-15" edge="1">
          <mxGeometry width="50" height="50" relative="1" as="geometry">
            <mxPoint x="440" y="170" as="sourcePoint" />
            <mxPoint x="610" y="190" as="targetPoint" />
          </mxGeometry>
        </mxCell>
        <mxCell id="UDUuyRHDEic25tg1yxT7-22" value="" style="endArrow=classic;html=1;rounded=0;exitX=1;exitY=0.5;exitDx=0;exitDy=0;entryX=0;entryY=0.5;entryDx=0;entryDy=0;fontSize=20;" parent="1" source="UDUuyRHDEic25tg1yxT7-2" target="UDUuyRHDEic25tg1yxT7-15" edge="1">
          <mxGeometry width="50" height="50" relative="1" as="geometry">
            <mxPoint x="560" y="240" as="sourcePoint" />
            <mxPoint x="610" y="190" as="targetPoint" />
          </mxGeometry>
        </mxCell>
        <mxCell id="UDUuyRHDEic25tg1yxT7-28" value="" style="endArrow=classic;html=1;rounded=0;exitX=1;exitY=0.5;exitDx=0;exitDy=0;edgeStyle=orthogonalEdgeStyle;entryX=0.5;entryY=0;entryDx=0;entryDy=0;fontSize=20;" parent="1" source="UDUuyRHDEic25tg1yxT7-6" target="esDBGZHsVuxOd4-5CmN2-1" edge="1">
          <mxGeometry width="50" height="50" relative="1" as="geometry">
            <mxPoint x="560" y="180" as="sourcePoint" />
            <mxPoint x="1070" y="310" as="targetPoint" />
          </mxGeometry>
        </mxCell>
        <mxCell id="UDUuyRHDEic25tg1yxT7-30" value="" style="endArrow=classic;html=1;rounded=0;exitX=1;exitY=0.5;exitDx=0;exitDy=0;entryX=0.5;entryY=0;entryDx=0;entryDy=0;edgeStyle=orthogonalEdgeStyle;fontSize=20;" parent="1" source="UDUuyRHDEic25tg1yxT7-5" target="esDBGZHsVuxOd4-5CmN2-1" edge="1">
          <mxGeometry width="50" height="50" relative="1" as="geometry">
            <mxPoint x="560" y="180" as="sourcePoint" />
            <mxPoint x="610" y="130" as="targetPoint" />
          </mxGeometry>
        </mxCell>
        <mxCell id="UDUuyRHDEic25tg1yxT7-31" value="" style="endArrow=classic;html=1;rounded=0;exitX=1;exitY=0.5;exitDx=0;exitDy=0;entryX=0.5;entryY=0;entryDx=0;entryDy=0;edgeStyle=orthogonalEdgeStyle;fontSize=20;" parent="1" source="UDUuyRHDEic25tg1yxT7-4" target="esDBGZHsVuxOd4-5CmN2-1" edge="1">
          <mxGeometry width="50" height="50" relative="1" as="geometry">
            <mxPoint x="580" y="290" as="sourcePoint" />
            <mxPoint x="630" y="240" as="targetPoint" />
          </mxGeometry>
        </mxCell>
        <mxCell id="UDUuyRHDEic25tg1yxT7-32" value="" style="endArrow=classic;html=1;rounded=0;exitX=0.5;exitY=0;exitDx=0;exitDy=0;entryX=0.5;entryY=1;entryDx=0;entryDy=0;fontSize=20;" parent="1" source="UDUuyRHDEic25tg1yxT7-3" target="UDUuyRHDEic25tg1yxT7-7" edge="1">
          <mxGeometry width="50" height="50" relative="1" as="geometry">
            <mxPoint x="600" y="250" as="sourcePoint" />
            <mxPoint x="650" y="200" as="targetPoint" />
          </mxGeometry>
        </mxCell>
        <mxCell id="UDUuyRHDEic25tg1yxT7-33" value="" style="endArrow=classic;html=1;rounded=0;exitX=0.5;exitY=1;exitDx=0;exitDy=0;entryX=0.5;entryY=0;entryDx=0;entryDy=0;fontSize=20;" parent="1" source="UDUuyRHDEic25tg1yxT7-3" target="UDUuyRHDEic25tg1yxT7-2" edge="1">
          <mxGeometry width="50" height="50" relative="1" as="geometry">
            <mxPoint x="600" y="250" as="sourcePoint" />
            <mxPoint x="650" y="200" as="targetPoint" />
          </mxGeometry>
        </mxCell>
        <mxCell id="UDUuyRHDEic25tg1yxT7-34" value="Vai trò = mặc định" style="text;html=1;align=center;verticalAlign=middle;resizable=0;points=[];autosize=1;strokeColor=none;fillColor=none;rotation=0;fontSize=20;" parent="1" vertex="1">
          <mxGeometry x="440" y="325" width="180" height="40" as="geometry" />
        </mxCell>
        <mxCell id="UDUuyRHDEic25tg1yxT7-36" value="Đăng xuất ()" style="text;html=1;align=center;verticalAlign=middle;resizable=0;points=[];autosize=1;strokeColor=none;fillColor=none;rotation=30;fontSize=20;" parent="1" vertex="1">
          <mxGeometry x="520" y="220" width="130" height="40" as="geometry" />
        </mxCell>
        <mxCell id="UDUuyRHDEic25tg1yxT7-37" value="" style="endArrow=classic;html=1;rounded=0;exitX=1;exitY=0.5;exitDx=0;exitDy=0;entryX=0;entryY=0.5;entryDx=0;entryDy=0;fontSize=20;" parent="1" source="UDUuyRHDEic25tg1yxT7-1" target="UDUuyRHDEic25tg1yxT7-3" edge="1">
          <mxGeometry width="50" height="50" relative="1" as="geometry">
            <mxPoint x="500" y="150" as="sourcePoint" />
            <mxPoint x="550" y="100" as="targetPoint" />
          </mxGeometry>
        </mxCell>
      </root>
    </mxGraphModel>
  </diagram>
  <diagram id="scjhqPoEKHoiKY4BxIeh" name="State_uml_Quản lý khóa học">
    <mxGraphModel dx="1108" dy="1814" grid="1" gridSize="10" guides="1" tooltips="1" connect="1" arrows="1" fold="1" page="1" pageScale="1" pageWidth="850" pageHeight="1100" math="0" shadow="0">
      <root>
        <mxCell id="0" />
        <mxCell id="1" parent="0" />
        <mxCell id="9mMxGZ1NFzfi6vgeacnk-1" value="" style="edgeStyle=orthogonalEdgeStyle;rounded=0;orthogonalLoop=1;jettySize=auto;html=1;entryX=0;entryY=0.5;entryDx=0;entryDy=0;fontSize=20;" edge="1" parent="1" source="OHzs_weIrbR_8sTQM_C_-1" target="zPKVkWNdl9uS6Ficjso7-2">
          <mxGeometry relative="1" as="geometry" />
        </mxCell>
        <mxCell id="OHzs_weIrbR_8sTQM_C_-1" value="" style="ellipse;shape=startState;fillColor=#000000;strokeColor=#ff0000;fontSize=20;" parent="1" vertex="1">
          <mxGeometry x="210" y="152.5" width="40" height="35" as="geometry" />
        </mxCell>
        <mxCell id="zPKVkWNdl9uS6Ficjso7-1" value="" style="ellipse;html=1;shape=endState;fillColor=#000000;strokeColor=#ff0000;fontSize=20;" parent="1" vertex="1">
          <mxGeometry x="215" y="440" width="30" height="30" as="geometry" />
        </mxCell>
        <mxCell id="zPKVkWNdl9uS6Ficjso7-2" value="Khóa học mới" style="rounded=1;whiteSpace=wrap;html=1;fontSize=20;" parent="1" vertex="1">
          <mxGeometry x="380" y="140" width="120" height="60" as="geometry" />
        </mxCell>
        <mxCell id="zPKVkWNdl9uS6Ficjso7-3" value="Tạo khóa học" style="text;html=1;align=center;verticalAlign=middle;resizable=0;points=[];autosize=1;strokeColor=none;fillColor=none;fontSize=20;" parent="1" vertex="1">
          <mxGeometry x="240" y="133" width="140" height="40" as="geometry" />
        </mxCell>
        <mxCell id="zPKVkWNdl9uS6Ficjso7-4" value="Đang ghi danh" style="rounded=1;whiteSpace=wrap;html=1;fontSize=20;" parent="1" vertex="1">
          <mxGeometry x="640" y="140" width="120" height="60" as="geometry" />
        </mxCell>
        <mxCell id="zPKVkWNdl9uS6Ficjso7-5" value="Mở ghi danh" style="text;html=1;align=center;verticalAlign=middle;resizable=0;points=[];autosize=1;strokeColor=none;fillColor=none;fontSize=20;" parent="1" vertex="1">
          <mxGeometry x="495" y="135" width="140" height="40" as="geometry" />
        </mxCell>
        <mxCell id="zPKVkWNdl9uS6Ficjso7-6" value="Bắt đầu khóa học" style="text;html=1;align=center;verticalAlign=middle;resizable=0;points=[];autosize=1;strokeColor=none;fillColor=none;fontSize=20;" parent="1" vertex="1">
          <mxGeometry x="755" y="133" width="180" height="40" as="geometry" />
        </mxCell>
        <mxCell id="zPKVkWNdl9uS6Ficjso7-8" value="Tạm dừng" style="rounded=1;whiteSpace=wrap;html=1;fontSize=20;" parent="1" vertex="1">
          <mxGeometry x="935" y="-110" width="120" height="60" as="geometry" />
        </mxCell>
        <mxCell id="zPKVkWNdl9uS6Ficjso7-9" value="Tạm dừng khóa học" style="text;html=1;align=center;verticalAlign=middle;resizable=0;points=[];autosize=1;strokeColor=none;fillColor=none;fontSize=20;rotation=-90;" parent="1" vertex="1">
          <mxGeometry x="880" y="30" width="200" height="40" as="geometry" />
        </mxCell>
        <mxCell id="zPKVkWNdl9uS6Ficjso7-10" value="Tiếp tục khóa học" style="text;html=1;align=center;verticalAlign=middle;resizable=0;points=[];autosize=1;strokeColor=none;fillColor=none;fontSize=20;rotation=-91;" parent="1" vertex="1">
          <mxGeometry x="1000" y="30" width="180" height="40" as="geometry" />
        </mxCell>
        <mxCell id="zPKVkWNdl9uS6Ficjso7-11" value="Hoàn thành" style="rounded=1;whiteSpace=wrap;html=1;fontSize=20;" parent="1" vertex="1">
          <mxGeometry x="940" y="360" width="120" height="60" as="geometry" />
        </mxCell>
        <mxCell id="zPKVkWNdl9uS6Ficjso7-12" value="&lt;span style=&quot;text-wrap-mode: wrap; font-size: 20px;&quot;&gt;Hoàn thành khóa học&lt;/span&gt;" style="text;html=1;align=left;verticalAlign=middle;resizable=0;points=[];autosize=1;strokeColor=none;fillColor=none;rotation=90;horizontal=0;fontSize=20;" parent="1" vertex="1">
          <mxGeometry x="1090" y="187.5" width="50" height="200" as="geometry" />
        </mxCell>
        <mxCell id="zPKVkWNdl9uS6Ficjso7-13" value="Hủy bỏ" style="rounded=1;whiteSpace=wrap;html=1;fontSize=20;" parent="1" vertex="1">
          <mxGeometry x="640" y="360" width="120" height="60" as="geometry" />
        </mxCell>
        <mxCell id="9mMxGZ1NFzfi6vgeacnk-2" value="" style="endArrow=classic;html=1;rounded=0;exitX=1;exitY=0.5;exitDx=0;exitDy=0;entryX=0;entryY=0.5;entryDx=0;entryDy=0;fontSize=20;" edge="1" parent="1" source="zPKVkWNdl9uS6Ficjso7-2" target="zPKVkWNdl9uS6Ficjso7-4">
          <mxGeometry width="50" height="50" relative="1" as="geometry">
            <mxPoint x="540" y="230" as="sourcePoint" />
            <mxPoint x="590" y="180" as="targetPoint" />
          </mxGeometry>
        </mxCell>
        <mxCell id="9mMxGZ1NFzfi6vgeacnk-3" value="" style="endArrow=classic;html=1;rounded=0;exitX=1;exitY=0.5;exitDx=0;exitDy=0;entryX=0;entryY=0.5;entryDx=0;entryDy=0;fontSize=20;" edge="1" parent="1" source="zPKVkWNdl9uS6Ficjso7-4" target="zPKVkWNdl9uS6Ficjso7-7">
          <mxGeometry width="50" height="50" relative="1" as="geometry">
            <mxPoint x="850" y="260" as="sourcePoint" />
            <mxPoint x="900" y="210" as="targetPoint" />
          </mxGeometry>
        </mxCell>
        <mxCell id="9mMxGZ1NFzfi6vgeacnk-4" value="" style="endArrow=classic;html=1;rounded=0;exitX=0.5;exitY=1;exitDx=0;exitDy=0;entryX=0.5;entryY=0;entryDx=0;entryDy=0;fontSize=20;" edge="1" parent="1" source="zPKVkWNdl9uS6Ficjso7-7" target="zPKVkWNdl9uS6Ficjso7-11">
          <mxGeometry width="50" height="50" relative="1" as="geometry">
            <mxPoint x="850" y="260" as="sourcePoint" />
            <mxPoint x="900" y="210" as="targetPoint" />
          </mxGeometry>
        </mxCell>
        <mxCell id="9mMxGZ1NFzfi6vgeacnk-5" value="" style="endArrow=classic;html=1;rounded=0;exitX=0.5;exitY=0;exitDx=0;exitDy=0;entryX=0.5;entryY=1;entryDx=0;entryDy=0;fontSize=20;" edge="1" parent="1" source="zPKVkWNdl9uS6Ficjso7-7" target="zPKVkWNdl9uS6Ficjso7-8">
          <mxGeometry width="50" height="50" relative="1" as="geometry">
            <mxPoint x="1060" y="260" as="sourcePoint" />
            <mxPoint x="1110" y="210" as="targetPoint" />
          </mxGeometry>
        </mxCell>
        <mxCell id="9mMxGZ1NFzfi6vgeacnk-7" value="" style="endArrow=classic;html=1;rounded=0;exitX=0.5;exitY=1;exitDx=0;exitDy=0;entryX=0.5;entryY=0;entryDx=0;entryDy=0;edgeStyle=orthogonalEdgeStyle;fontSize=20;" edge="1" parent="1" source="zPKVkWNdl9uS6Ficjso7-4" target="zPKVkWNdl9uS6Ficjso7-13">
          <mxGeometry width="50" height="50" relative="1" as="geometry">
            <mxPoint x="1060" y="260" as="sourcePoint" />
            <mxPoint x="1110" y="210" as="targetPoint" />
          </mxGeometry>
        </mxCell>
        <mxCell id="9mMxGZ1NFzfi6vgeacnk-9" value="" style="endArrow=classic;html=1;rounded=0;exitX=0.5;exitY=1;exitDx=0;exitDy=0;entryX=0.5;entryY=0;entryDx=0;entryDy=0;edgeStyle=orthogonalEdgeStyle;fontSize=20;" edge="1" parent="1" source="zPKVkWNdl9uS6Ficjso7-7" target="zPKVkWNdl9uS6Ficjso7-13">
          <mxGeometry width="50" height="50" relative="1" as="geometry">
            <mxPoint x="800" y="250" as="sourcePoint" />
            <mxPoint x="850" y="200" as="targetPoint" />
            <Array as="points">
              <mxPoint x="1000" y="240" />
              <mxPoint x="700" y="240" />
            </Array>
          </mxGeometry>
        </mxCell>
        <mxCell id="9mMxGZ1NFzfi6vgeacnk-11" value="Hủy khóa học" style="text;html=1;align=center;verticalAlign=middle;resizable=0;points=[];autosize=1;strokeColor=none;fillColor=none;rotation=-90;fontSize=20;" vertex="1" parent="1">
          <mxGeometry x="605" y="260" width="150" height="40" as="geometry" />
        </mxCell>
        <mxCell id="9mMxGZ1NFzfi6vgeacnk-12" value="" style="endArrow=classic;html=1;rounded=0;entryX=1;entryY=0.5;entryDx=0;entryDy=0;exitX=0.5;exitY=1;exitDx=0;exitDy=0;edgeStyle=orthogonalEdgeStyle;fontSize=20;" edge="1" parent="1" source="zPKVkWNdl9uS6Ficjso7-13" target="zPKVkWNdl9uS6Ficjso7-1">
          <mxGeometry width="50" height="50" relative="1" as="geometry">
            <mxPoint x="620" y="320" as="sourcePoint" />
            <mxPoint x="670" y="270" as="targetPoint" />
          </mxGeometry>
        </mxCell>
        <mxCell id="9mMxGZ1NFzfi6vgeacnk-14" value="" style="endArrow=classic;html=1;rounded=0;exitX=0.5;exitY=1;exitDx=0;exitDy=0;entryX=1;entryY=0.5;entryDx=0;entryDy=0;edgeStyle=orthogonalEdgeStyle;fontSize=20;" edge="1" parent="1" source="zPKVkWNdl9uS6Ficjso7-11" target="zPKVkWNdl9uS6Ficjso7-1">
          <mxGeometry width="50" height="50" relative="1" as="geometry">
            <mxPoint x="620" y="320" as="sourcePoint" />
            <mxPoint x="670" y="270" as="targetPoint" />
          </mxGeometry>
        </mxCell>
        <mxCell id="tZOGl9JHaTBP6JY093mD-1" value="Hủy khóa học" style="text;html=1;align=center;verticalAlign=middle;resizable=0;points=[];autosize=1;strokeColor=none;fillColor=none;rotation=-1;fontSize=20;" vertex="1" parent="1">
          <mxGeometry x="760" y="198" width="150" height="40" as="geometry" />
        </mxCell>
        <mxCell id="tZOGl9JHaTBP6JY093mD-2" value="" style="endArrow=classic;html=1;rounded=0;exitX=1;exitY=0.5;exitDx=0;exitDy=0;edgeStyle=orthogonalEdgeStyle;fontSize=20;entryX=1;entryY=0.5;entryDx=0;entryDy=0;" edge="1" parent="1" source="zPKVkWNdl9uS6Ficjso7-8" target="zPKVkWNdl9uS6Ficjso7-7">
          <mxGeometry width="50" height="50" relative="1" as="geometry">
            <mxPoint x="1020" y="20" as="sourcePoint" />
            <mxPoint x="1070" y="150" as="targetPoint" />
            <Array as="points">
              <mxPoint x="1110" y="-80" />
              <mxPoint x="1110" y="168" />
            </Array>
          </mxGeometry>
        </mxCell>
        <mxCell id="zPKVkWNdl9uS6Ficjso7-7" value="Đang diễn ra" style="rounded=1;whiteSpace=wrap;html=1;fontSize=20;" parent="1" vertex="1">
          <mxGeometry x="940" y="138" width="120" height="60" as="geometry" />
        </mxCell>
      </root>
    </mxGraphModel>
  </diagram>
  <diagram id="_gqbYJFZR02VVE9Idbhy" name="State_uml_Quản lý hóa đơn">
    <mxGraphModel dx="1108" dy="1814" grid="1" gridSize="10" guides="1" tooltips="1" connect="1" arrows="1" fold="1" page="1" pageScale="1" pageWidth="850" pageHeight="1100" math="0" shadow="0">
      <root>
        <mxCell id="0" />
        <mxCell id="1" parent="0" />
        <mxCell id="WMyvEGs7oHTsOGFMATRd-1" value="" style="ellipse;shape=startState;fillColor=#000000;strokeColor=#ff0000;fontSize=20;" parent="1" vertex="1">
          <mxGeometry x="240" y="155" width="30" height="30" as="geometry" />
        </mxCell>
        <mxCell id="eGHTHCixUaRVx0VY0BZU-1" value="" style="ellipse;html=1;shape=endState;fillColor=#000000;strokeColor=#ff0000;fontSize=20;" parent="1" vertex="1">
          <mxGeometry x="240" y="450" width="30" height="30" as="geometry" />
        </mxCell>
        <mxCell id="eGHTHCixUaRVx0VY0BZU-2" value="Hóa đơn mới" style="rounded=1;whiteSpace=wrap;html=1;fontSize=20;" parent="1" vertex="1">
          <mxGeometry x="370" y="140" width="120" height="60" as="geometry" />
        </mxCell>
        <mxCell id="eGHTHCixUaRVx0VY0BZU-3" value="Hóa đơn đã gửi" style="rounded=1;whiteSpace=wrap;html=1;fontSize=20;" parent="1" vertex="1">
          <mxGeometry x="620" y="140" width="120" height="60" as="geometry" />
        </mxCell>
        <mxCell id="eGHTHCixUaRVx0VY0BZU-4" value="Hóa đơn đã thanh toán" style="rounded=1;whiteSpace=wrap;html=1;fontSize=20;" parent="1" vertex="1">
          <mxGeometry x="930" y="-60" width="120" height="60" as="geometry" />
        </mxCell>
        <mxCell id="eGHTHCixUaRVx0VY0BZU-5" value="Hóa đơn quá hạn" style="rounded=1;whiteSpace=wrap;html=1;fontSize=20;" parent="1" vertex="1">
          <mxGeometry x="930" y="370" width="120" height="60" as="geometry" />
        </mxCell>
        <mxCell id="eGHTHCixUaRVx0VY0BZU-6" value="Hủy bỏ" style="rounded=1;whiteSpace=wrap;html=1;fontSize=20;" parent="1" vertex="1">
          <mxGeometry x="620" y="370" width="120" height="60" as="geometry" />
        </mxCell>
        <mxCell id="eGHTHCixUaRVx0VY0BZU-7" value="Hóa đơn thanh toán 1 phần" style="rounded=1;whiteSpace=wrap;html=1;fontSize=20;" parent="1" vertex="1">
          <mxGeometry x="925" y="200" width="130" height="70" as="geometry" />
        </mxCell>
        <mxCell id="eGHTHCixUaRVx0VY0BZU-8" value="Tạo hóa đơn" style="text;html=1;align=center;verticalAlign=middle;resizable=0;points=[];autosize=1;strokeColor=none;fillColor=none;fontSize=20;" parent="1" vertex="1">
          <mxGeometry x="240" y="133" width="140" height="40" as="geometry" />
        </mxCell>
        <mxCell id="eGHTHCixUaRVx0VY0BZU-9" value="Gửi hóa đơn" style="text;html=1;align=center;verticalAlign=middle;resizable=0;points=[];autosize=1;strokeColor=none;fillColor=none;fontSize=20;" parent="1" vertex="1">
          <mxGeometry x="480" y="133" width="140" height="40" as="geometry" />
        </mxCell>
        <mxCell id="eGHTHCixUaRVx0VY0BZU-10" value="Thanh toán 1 phần" style="text;html=1;align=center;verticalAlign=middle;resizable=0;points=[];autosize=1;strokeColor=none;fillColor=none;fontSize=20;rotation=20;" parent="1" vertex="1">
          <mxGeometry x="750" y="173" width="190" height="40" as="geometry" />
        </mxCell>
        <mxCell id="eGHTHCixUaRVx0VY0BZU-11" value="Thanh toán hoàn tất" style="text;html=1;align=center;verticalAlign=middle;resizable=0;points=[];autosize=1;strokeColor=none;fillColor=none;fontSize=20;rotation=-45;" parent="1" vertex="1">
          <mxGeometry x="720" y="40" width="200" height="40" as="geometry" />
        </mxCell>
        <mxCell id="eGHTHCixUaRVx0VY0BZU-12" value="Thanh toán hoàn tất" style="text;html=1;align=center;verticalAlign=middle;resizable=0;points=[];autosize=1;strokeColor=none;fillColor=none;fontSize=20;rotation=-90;" parent="1" vertex="1">
          <mxGeometry x="880" y="90" width="200" height="40" as="geometry" />
        </mxCell>
        <mxCell id="eGHTHCixUaRVx0VY0BZU-13" value="Đến hạn" style="text;html=1;align=center;verticalAlign=middle;resizable=0;points=[];autosize=1;strokeColor=none;fillColor=none;fontSize=20;rotation=54;" parent="1" vertex="1">
          <mxGeometry x="795" y="260" width="100" height="40" as="geometry" />
        </mxCell>
        <mxCell id="eGHTHCixUaRVx0VY0BZU-14" value="Hủy hóa đơn" style="text;html=1;align=center;verticalAlign=middle;resizable=0;points=[];autosize=1;strokeColor=none;fillColor=none;fontSize=20;" parent="1" vertex="1">
          <mxGeometry x="760" y="360" width="140" height="40" as="geometry" />
        </mxCell>
        <mxCell id="eGHTHCixUaRVx0VY0BZU-15" value="" style="endArrow=classic;html=1;rounded=0;exitX=1;exitY=0.5;exitDx=0;exitDy=0;entryX=0;entryY=0.5;entryDx=0;entryDy=0;fontSize=20;" parent="1" source="WMyvEGs7oHTsOGFMATRd-1" target="eGHTHCixUaRVx0VY0BZU-2" edge="1">
          <mxGeometry width="50" height="50" relative="1" as="geometry">
            <mxPoint x="630" y="240" as="sourcePoint" />
            <mxPoint x="680" y="190" as="targetPoint" />
          </mxGeometry>
        </mxCell>
        <mxCell id="eGHTHCixUaRVx0VY0BZU-16" value="" style="endArrow=classic;html=1;rounded=0;exitX=1;exitY=0.5;exitDx=0;exitDy=0;entryX=0;entryY=0.5;entryDx=0;entryDy=0;fontSize=20;" parent="1" target="eGHTHCixUaRVx0VY0BZU-3" edge="1">
          <mxGeometry width="50" height="50" relative="1" as="geometry">
            <mxPoint x="480" y="169.5" as="sourcePoint" />
            <mxPoint x="570" y="169.5" as="targetPoint" />
          </mxGeometry>
        </mxCell>
        <mxCell id="eGHTHCixUaRVx0VY0BZU-17" value="" style="endArrow=classic;html=1;rounded=0;entryX=0;entryY=0.5;entryDx=0;entryDy=0;fontSize=20;exitX=1;exitY=0.5;exitDx=0;exitDy=0;" parent="1" target="eGHTHCixUaRVx0VY0BZU-4" edge="1" source="eGHTHCixUaRVx0VY0BZU-3">
          <mxGeometry width="50" height="50" relative="1" as="geometry">
            <mxPoint x="760" y="200" as="sourcePoint" />
            <mxPoint x="810" y="169.5" as="targetPoint" />
          </mxGeometry>
        </mxCell>
        <mxCell id="eGHTHCixUaRVx0VY0BZU-18" value="" style="endArrow=classic;html=1;rounded=0;entryX=0;entryY=0.5;entryDx=0;entryDy=0;fontSize=20;" parent="1" target="eGHTHCixUaRVx0VY0BZU-7" edge="1">
          <mxGeometry width="50" height="50" relative="1" as="geometry">
            <mxPoint x="740" y="170" as="sourcePoint" />
            <mxPoint x="790" y="90" as="targetPoint" />
          </mxGeometry>
        </mxCell>
        <mxCell id="eGHTHCixUaRVx0VY0BZU-19" value="" style="endArrow=classic;html=1;rounded=0;exitX=0.5;exitY=0;exitDx=0;exitDy=0;entryX=0.5;entryY=1;entryDx=0;entryDy=0;fontSize=20;" parent="1" source="eGHTHCixUaRVx0VY0BZU-7" target="eGHTHCixUaRVx0VY0BZU-4" edge="1">
          <mxGeometry width="50" height="50" relative="1" as="geometry">
            <mxPoint x="840" y="120" as="sourcePoint" />
            <mxPoint x="930" y="120" as="targetPoint" />
          </mxGeometry>
        </mxCell>
        <mxCell id="eGHTHCixUaRVx0VY0BZU-20" value="" style="endArrow=classic;html=1;rounded=0;entryX=0;entryY=0.5;entryDx=0;entryDy=0;fontSize=20;" parent="1" target="eGHTHCixUaRVx0VY0BZU-5" edge="1">
          <mxGeometry width="50" height="50" relative="1" as="geometry">
            <mxPoint x="740" y="169" as="sourcePoint" />
            <mxPoint x="835" y="220" as="targetPoint" />
          </mxGeometry>
        </mxCell>
        <mxCell id="eGHTHCixUaRVx0VY0BZU-21" value="" style="endArrow=classic;html=1;rounded=0;entryX=0.5;entryY=0;entryDx=0;entryDy=0;exitX=0.5;exitY=1;exitDx=0;exitDy=0;edgeStyle=orthogonalEdgeStyle;fontSize=20;" parent="1" source="eGHTHCixUaRVx0VY0BZU-7" target="eGHTHCixUaRVx0VY0BZU-5" edge="1">
          <mxGeometry width="50" height="50" relative="1" as="geometry">
            <mxPoint x="1090" y="240" as="sourcePoint" />
            <mxPoint x="970" y="250" as="targetPoint" />
            <Array as="points">
              <mxPoint x="990" y="330" />
              <mxPoint x="990" y="330" />
            </Array>
          </mxGeometry>
        </mxCell>
        <mxCell id="eGHTHCixUaRVx0VY0BZU-22" value="Đến hạn" style="text;html=1;align=center;verticalAlign=middle;resizable=0;points=[];autosize=1;strokeColor=none;fillColor=none;fontSize=20;rotation=-91;" parent="1" vertex="1">
          <mxGeometry x="920" y="300" width="100" height="40" as="geometry" />
        </mxCell>
        <mxCell id="eGHTHCixUaRVx0VY0BZU-23" value="" style="endArrow=classic;html=1;rounded=0;exitX=0.5;exitY=1;exitDx=0;exitDy=0;entryX=0;entryY=0.5;entryDx=0;entryDy=0;edgeStyle=orthogonalEdgeStyle;fontSize=20;" parent="1" source="eGHTHCixUaRVx0VY0BZU-2" target="eGHTHCixUaRVx0VY0BZU-6" edge="1">
          <mxGeometry width="50" height="50" relative="1" as="geometry">
            <mxPoint x="490" y="179.5" as="sourcePoint" />
            <mxPoint x="610" y="180" as="targetPoint" />
          </mxGeometry>
        </mxCell>
        <mxCell id="eGHTHCixUaRVx0VY0BZU-24" value="Hủy hóa đơn" style="text;html=1;align=center;verticalAlign=middle;resizable=0;points=[];autosize=1;strokeColor=none;fillColor=none;fontSize=20;rotation=-89;" parent="1" vertex="1">
          <mxGeometry x="340" y="270" width="140" height="40" as="geometry" />
        </mxCell>
        <mxCell id="eGHTHCixUaRVx0VY0BZU-25" value="" style="endArrow=classic;html=1;rounded=0;exitX=0.5;exitY=1;exitDx=0;exitDy=0;entryX=0.5;entryY=0;entryDx=0;entryDy=0;fontSize=20;" parent="1" source="eGHTHCixUaRVx0VY0BZU-3" target="eGHTHCixUaRVx0VY0BZU-6" edge="1">
          <mxGeometry width="50" height="50" relative="1" as="geometry">
            <mxPoint x="430" y="210" as="sourcePoint" />
            <mxPoint x="605" y="340" as="targetPoint" />
          </mxGeometry>
        </mxCell>
        <mxCell id="eGHTHCixUaRVx0VY0BZU-26" value="" style="endArrow=classic;html=1;rounded=0;exitX=0;exitY=0.5;exitDx=0;exitDy=0;entryX=1;entryY=0.5;entryDx=0;entryDy=0;fontSize=20;" parent="1" source="eGHTHCixUaRVx0VY0BZU-5" target="eGHTHCixUaRVx0VY0BZU-6" edge="1">
          <mxGeometry width="50" height="50" relative="1" as="geometry">
            <mxPoint x="670" y="210" as="sourcePoint" />
            <mxPoint x="665" y="310" as="targetPoint" />
          </mxGeometry>
        </mxCell>
        <mxCell id="eGHTHCixUaRVx0VY0BZU-27" value="Hủy hóa đơn" style="text;html=1;align=center;verticalAlign=middle;resizable=0;points=[];autosize=1;strokeColor=none;fillColor=none;fontSize=20;rotation=-90;" parent="1" vertex="1">
          <mxGeometry x="595" y="260" width="140" height="40" as="geometry" />
        </mxCell>
        <mxCell id="eGHTHCixUaRVx0VY0BZU-28" value="" style="endArrow=classic;html=1;rounded=0;exitX=1;exitY=0.5;exitDx=0;exitDy=0;entryX=1;entryY=0.5;entryDx=0;entryDy=0;edgeStyle=orthogonalEdgeStyle;fontSize=20;" parent="1" source="eGHTHCixUaRVx0VY0BZU-4" target="eGHTHCixUaRVx0VY0BZU-1" edge="1">
          <mxGeometry width="50" height="50" relative="1" as="geometry">
            <mxPoint x="630" y="240" as="sourcePoint" />
            <mxPoint x="680" y="190" as="targetPoint" />
            <Array as="points">
              <mxPoint x="1120" y="-30" />
              <mxPoint x="1120" y="465" />
            </Array>
          </mxGeometry>
        </mxCell>
        <mxCell id="Lxepy00dEP6plPx9NgOR-4" value="" style="endArrow=classic;html=1;rounded=0;exitX=0.5;exitY=1;exitDx=0;exitDy=0;entryX=1;entryY=0.5;entryDx=0;entryDy=0;edgeStyle=orthogonalEdgeStyle;" edge="1" parent="1" source="eGHTHCixUaRVx0VY0BZU-6" target="eGHTHCixUaRVx0VY0BZU-1">
          <mxGeometry width="50" height="50" relative="1" as="geometry">
            <mxPoint x="640" y="270" as="sourcePoint" />
            <mxPoint x="690" y="220" as="targetPoint" />
          </mxGeometry>
        </mxCell>
      </root>
    </mxGraphModel>
  </diagram>
  <diagram id="eiHqWPCuq4z_xuxvduHz" name="Page-8">
    <mxGraphModel dx="942" dy="607" grid="1" gridSize="10" guides="1" tooltips="1" connect="1" arrows="1" fold="1" page="1" pageScale="1" pageWidth="850" pageHeight="1100" math="0" shadow="0">
      <root>
        <mxCell id="0" />
        <mxCell id="1" parent="0" />
      </root>
    </mxGraphModel>
  </diagram>
</mxfile>
